<svg width="26" height="26" viewBox="0 0 26 26" fill="none" xmlns="http://www.w3.org/2000/svg">
<path d="M9.75 23.8333H4.33333C3.13842 23.8333 2.16667 22.8616 2.16667 21.6667C2.16667 20.4718 3.13842 19.5 4.33333 19.5H7.58333C8.18133 19.5 8.66667 19.0158 8.66667 18.4167C8.66667 17.8176 8.18133 17.3333 7.58333 17.3333H6.5V2.16667H16.25C18.0418 2.16667 19.5 3.62483 19.5 5.41667V7.58333C19.5 8.18133 19.9853 8.66667 20.5833 8.66667C21.1813 8.66667 21.6667 8.18133 21.6667 7.58333V5.41667C21.6667 2.42992 19.2368 0 16.25 0H5.41667C2.42992 0 0 2.42992 0 5.41667V21.6667C0 24.0565 1.9435 26 4.33333 26H9.75C10.348 26 10.8333 25.5158 10.8333 24.9167C10.8333 24.3176 10.348 23.8333 9.75 23.8333ZM4.33333 2.353V17.3333C3.54467 17.3333 2.80475 17.5457 2.16667 17.9151V5.41667C2.16667 4.004 3.07233 2.80042 4.33333 2.353ZM18.4167 10.8333C14.235 10.8333 10.8333 14.2361 10.8333 18.4167C10.8333 22.5972 14.235 26 18.4167 26C22.5983 26 26 22.5972 26 18.4167C26 14.2361 22.5983 10.8333 18.4167 10.8333ZM18.4167 23.8333C15.4299 23.8333 13 21.4034 13 18.4167C13 15.4299 15.4299 13 18.4167 13C21.4034 13 23.8333 15.4299 23.8333 18.4167C23.8333 21.4034 21.4034 23.8333 18.4167 23.8333ZM21.3872 16.7928C21.5692 16.9748 21.6656 17.2185 21.6656 17.4655C21.6656 17.5879 21.6428 17.7114 21.593 17.8295C21.4457 18.1848 21.099 18.4156 20.7133 18.4156H19.4989V20.5823C19.4989 21.1813 19.0136 21.6656 18.4156 21.6656C17.8176 21.6656 17.3323 21.1813 17.3323 20.5823V18.4156H16.1178C15.7333 18.4156 15.3855 18.1848 15.2382 17.8295C15.0887 17.4731 15.171 17.0647 15.444 16.7917L17.069 15.1667C17.8111 14.4246 19.019 14.4246 19.7611 15.1667L21.3861 16.7917L21.3872 16.7928Z" fill="#012935"/>
</svg>
