<svg width="34" height="32" viewBox="0 0 34 32" fill="none" xmlns="http://www.w3.org/2000/svg">
<path d="M34 10.9007V27.6393C34 28.0247 33.8507 28.3943 33.5851 28.6668C33.3194 28.9393 32.9591 29.0923 32.5833 29.0923C32.2076 29.0923 31.8473 28.9393 31.5816 28.6668C31.3159 28.3943 31.1667 28.0247 31.1667 27.6393V15.6549L20.6833 20.7928C19.5779 21.4619 18.316 21.8105 17.0325 21.8011C15.6865 21.8033 14.3649 21.4323 13.2075 20.7274L2.75247 15.623C1.93063 15.1697 1.24203 14.4991 0.758107 13.6808C0.274188 12.8625 0.0125847 11.9263 0.000442803 10.9693C-0.0116991 10.0123 0.226062 9.06946 0.689057 8.23852C1.15205 7.40758 1.82341 6.71885 2.63347 6.2438C2.67172 6.22055 2.7128 6.19875 2.75247 6.17841L13.3166 1.00861C14.4571 0.336828 15.7515 -0.0112162 17.0667 0.000275633C18.3818 0.0117675 19.6703 0.382381 20.7995 1.07399L31.2474 6.17841C32.0718 6.64625 32.7608 7.32962 33.2442 8.15905C33.7277 8.98847 33.9885 9.9344 34 10.9007ZM17.0311 24.7043C15.2186 24.7084 13.4372 24.2212 11.8673 23.2919L5.66656 20.2566V24.1797C5.6674 25.7308 6.15158 27.2411 7.04842 28.49C7.94527 29.739 9.20783 30.6612 10.6518 31.1222C12.715 31.7298 14.8536 32.0249 16.9999 31.9984C19.1466 32.023 21.2852 31.7259 23.348 31.1164C24.792 30.6554 26.0546 29.7332 26.9515 28.4842C27.8483 27.2353 28.3325 25.725 28.3333 24.1739V20.2639L22.0164 23.3588C20.5 24.2523 18.7799 24.7175 17.0311 24.7072V24.7043Z" fill="white"/>
</svg>
