<svg width="51" height="48" viewBox="0 0 51 48" fill="none" xmlns="http://www.w3.org/2000/svg">
<path d="M32.796 0.446201C31.4914 0.218475 30.1526 0.280767 28.8748 0.628656C27.597 0.976547 26.4114 1.6015 25.4023 2.45914L20.0475 6.99895C18.8129 8.04991 17.9674 9.48542 17.647 11.0748C16.1068 10.5572 14.4372 10.5736 12.9075 11.1212L6.30793 13.4833C5.06054 13.9282 3.9262 14.6418 2.9852 15.5737C2.0442 16.5057 1.31954 17.633 0.86253 18.876C0.405517 20.119 0.227319 21.4473 0.34055 22.7668C0.453781 24.0863 0.855673 25.3648 1.51778 26.5118L11.2705 43.404C12.3285 45.2364 13.9961 46.6394 15.9824 47.3684C17.9688 48.0974 20.1479 48.1063 22.1402 47.3934L33.0113 43.5022C34.8512 42.8434 36.5573 41.8584 38.0478 40.5944L46.861 33.1208C48.4721 31.7511 49.5518 29.8598 49.9121 27.7761C50.2725 25.6925 49.8906 23.5484 48.8331 21.7172L39.0804 4.82501C38.4191 3.67807 37.5131 2.69103 36.4269 1.93418C35.3407 1.17732 34.101 0.669271 32.796 0.446201ZM32.2231 39.9359C32.0808 39.9931 31.9367 40.0471 31.7917 40.0995L20.923 43.9914C19.7276 44.4191 18.4198 44.4138 17.2279 43.9762C16.036 43.5385 15.0354 42.6965 14.4007 41.5968L4.64799 24.7046C3.92903 23.4593 3.7342 21.9794 4.10636 20.5905C4.47853 19.2015 5.38719 18.0173 6.63247 17.2984C6.91629 17.1354 7.21392 16.9978 7.52191 16.8871L14.1331 14.5309C14.9285 14.2472 15.798 14.2509 16.5909 14.5414C17.3838 14.832 18.0499 15.3909 18.4737 16.1213L32.2231 39.9359ZM45.7029 23.5245C46.3379 24.624 46.5669 25.9115 46.3499 27.1626C46.1329 28.4136 45.4837 29.5488 44.5155 30.3703L35.7107 37.8368C35.5928 37.9362 35.474 38.034 35.3534 38.1287L21.6039 14.314C21.1806 13.581 21.0279 12.7227 21.1726 11.8886C21.3173 11.0546 21.7501 10.2978 22.3955 9.75016L27.7433 5.20187C28.3494 4.68764 29.0612 4.31298 29.8282 4.1044C30.5952 3.89583 31.3987 3.85847 32.1817 3.99494C32.9648 4.13142 33.7082 4.43841 34.3595 4.89416C35.0107 5.34992 35.5537 5.94329 35.9502 6.63225L45.7029 23.5245Z" fill="#51666C"/>
</svg>
