<svg width="20" height="20" viewBox="0 0 20 20" fill="none" xmlns="http://www.w3.org/2000/svg">
<path d="M17.5 13.3331V9.99961C17.4997 8.88 17.2483 7.7747 16.7643 6.76512C16.2803 5.75554 15.576 4.86738 14.7033 4.16605H16.8975C17.0822 4.48074 17.3654 4.72578 17.7034 4.86323C18.0414 5.00068 18.4153 5.02288 18.7672 4.9264C19.119 4.82992 19.4293 4.62013 19.6499 4.3295C19.8706 4.03888 19.9892 3.68364 19.9876 3.31876C19.9859 2.95388 19.8641 2.59972 19.6409 2.3111C19.4176 2.02247 19.1055 1.81548 18.7527 1.72217C18.4 1.62886 18.0264 1.65442 17.6896 1.79491C17.3529 1.9354 17.0718 2.18298 16.89 2.49932H13.215C13.0331 1.78464 12.6183 1.15093 12.0361 0.698324C11.4539 0.245714 10.7374 0 10 0C9.26256 0 8.54615 0.245714 7.96393 0.698324C7.38171 1.15093 6.96689 1.78464 6.785 2.49932H3.1025C2.91782 2.18463 2.63456 1.93959 2.29658 1.80214C1.95859 1.66469 1.58472 1.64248 1.23283 1.73897C0.880954 1.83545 0.570689 2.04524 0.350067 2.33586C0.129444 2.62648 0.0107688 2.98173 0.0124107 3.34661C0.0140526 3.71148 0.13592 4.06565 0.359149 4.35427C0.582378 4.64289 0.894518 4.84988 1.24725 4.9432C1.59999 5.03651 1.97364 5.01094 2.31038 4.87045C2.64712 4.72997 2.92816 4.48239 3.11 4.16605H5.29667C4.42396 4.86738 3.71968 5.75554 3.23568 6.76512C2.75167 7.7747 2.50028 8.88 2.5 9.99961V13.3331C1.83696 13.3331 1.20107 13.5965 0.732233 14.0653C0.263392 14.5342 0 15.1701 0 15.8332L0 17.4999C0 18.163 0.263392 18.7989 0.732233 19.2677C1.20107 19.7366 1.83696 20 2.5 20H4.16667C4.82971 20 5.46559 19.7366 5.93443 19.2677C6.40327 18.7989 6.66667 18.163 6.66667 17.4999V15.8332C6.66667 15.1701 6.40327 14.5342 5.93443 14.0653C5.46559 13.5965 4.82971 13.3331 4.16667 13.3331V9.99961C4.16802 8.97349 4.44001 7.96588 4.95517 7.07847C5.47034 6.19105 6.21045 5.45523 7.10083 4.94525C7.38495 5.46608 7.80411 5.90075 8.31427 6.20359C8.82442 6.50643 9.40673 6.66625 10 6.66625C10.5933 6.66625 11.1756 6.50643 11.6857 6.20359C12.1959 5.90075 12.6151 5.46608 12.8992 4.94525C13.7895 5.45523 14.5297 6.19105 15.0448 7.07847C15.56 7.96588 15.832 8.97349 15.8333 9.99961V13.3331C15.1703 13.3331 14.5344 13.5965 14.0656 14.0653C13.5967 14.5342 13.3333 15.1701 13.3333 15.8332V17.4999C13.3333 18.163 13.5967 18.7989 14.0656 19.2677C14.5344 19.7366 15.1703 20 15.8333 20H17.5C18.163 20 18.7989 19.7366 19.2678 19.2677C19.7366 18.7989 20 18.163 20 17.4999V15.8332C20 15.1701 19.7366 14.5342 19.2678 14.0653C18.7989 13.5965 18.163 13.3331 17.5 13.3331ZM5 15.8332V17.4999C5 17.7209 4.9122 17.9329 4.75592 18.0892C4.59964 18.2455 4.38768 18.3333 4.16667 18.3333H2.5C2.27899 18.3333 2.06702 18.2455 1.91074 18.0892C1.75446 17.9329 1.66667 17.7209 1.66667 17.4999V15.8332C1.66667 15.6121 1.75446 15.4002 1.91074 15.2439C2.06702 15.0876 2.27899 14.9998 2.5 14.9998H4.16667C4.38768 14.9998 4.59964 15.0876 4.75592 15.2439C4.9122 15.4002 5 15.6121 5 15.8332ZM10 4.99941C9.67036 4.99941 9.34813 4.90166 9.07405 4.71852C8.79997 4.53538 8.58635 4.27507 8.4602 3.97051C8.33405 3.66596 8.30105 3.33083 8.36536 3.00752C8.42967 2.68421 8.5884 2.38722 8.82149 2.15413C9.05458 1.92103 9.35155 1.76229 9.67485 1.69798C9.99815 1.63367 10.3333 1.66667 10.6378 1.79282C10.9423 1.91898 11.2026 2.1326 11.3858 2.4067C11.5689 2.68079 11.6667 3.00304 11.6667 3.33268C11.6667 3.77473 11.4911 4.19867 11.1785 4.51124C10.8659 4.82381 10.442 4.99941 10 4.99941ZM18.3333 17.4999C18.3333 17.7209 18.2455 17.9329 18.0893 18.0892C17.933 18.2455 17.721 18.3333 17.5 18.3333H15.8333C15.6123 18.3333 15.4004 18.2455 15.2441 18.0892C15.0878 17.9329 15 17.7209 15 17.4999V15.8332C15 15.6121 15.0878 15.4002 15.2441 15.2439C15.4004 15.0876 15.6123 14.9998 15.8333 14.9998H17.5C17.721 14.9998 17.933 15.0876 18.0893 15.2439C18.2455 15.4002 18.3333 15.6121 18.3333 15.8332V17.4999Z" fill="#FF7510"/>
</svg>
