<svg width="20" height="20" viewBox="0 0 20 20" fill="none" xmlns="http://www.w3.org/2000/svg">
<path d="M19.1036 5.2181C20.2952 4.02482 20.2952 2.08574 19.1036 0.89496C17.912 -0.29832 15.9704 -0.29832 14.7797 0.89496L5.66589 10.0071C4.40844 9.93789 3.1285 10.3829 2.16938 11.3412C0.918599 12.5928 0.211964 16.1251 0.0136396 17.8167C-0.0563573 18.4108 0.1453 18.9933 0.566948 19.415C0.932765 19.7816 1.42108 19.9824 1.93355 19.9824C2.01105 19.9824 2.08855 19.9774 2.16521 19.9683C2.36604 19.9449 7.11332 19.37 8.65576 17.8275C9.61405 16.8692 10.0582 15.5893 9.98903 14.3319L19.1036 5.2181ZM7.47664 16.6484C6.76501 17.3601 4.06429 18.0659 1.96939 18.3125C1.85689 18.33 1.77939 18.2709 1.7444 18.2359C1.71023 18.2017 1.6544 18.1267 1.66773 18.01C1.91272 15.9251 2.64602 13.2211 3.34766 12.5186C3.91763 11.9495 4.66427 11.6653 5.41257 11.6653C6.16087 11.6653 6.9075 11.9503 7.47748 12.5186C8.61576 13.6569 8.61576 15.5093 7.47748 16.6476L7.47664 16.6484ZM8.65492 11.3412C8.31244 10.9987 7.92829 10.7212 7.51914 10.5104L15.9571 2.07241C16.4987 1.53077 17.3829 1.53077 17.9245 2.07241C18.4662 2.61405 18.4662 3.49651 17.9245 4.03899L9.48572 12.4769C9.27406 12.0678 8.99741 11.6836 8.65492 11.3412Z" fill="#FF7510"/>
<path d="M3.93501 8.25648C4.0975 8.41897 4.31082 8.50063 4.52415 8.50063C4.73747 8.50063 4.9508 8.41897 5.11329 8.25648C5.43911 7.93066 5.43911 7.40401 5.11329 7.0782L2.07509 4.04C1.53261 3.49752 1.53261 2.61506 2.07509 2.07258C2.61757 1.53094 3.50086 1.53094 4.04167 2.07258L7.07987 5.11162C7.40569 5.43743 7.93233 5.43743 8.25815 5.11162C8.58397 4.7858 8.58397 4.25915 8.25815 3.93333L5.21995 0.894303C4.02667 -0.297311 2.08759 -0.297311 0.895976 0.89347C-0.295638 2.08425 -0.296471 4.02583 0.895976 5.21744L3.93417 8.25564L3.93501 8.25648Z" fill="#FF7510"/>
<path d="M18.5339 14.2092L16.0715 11.746C15.7457 11.4202 15.2191 11.4202 14.8932 11.746C14.5674 12.0718 14.5674 12.5985 14.8932 12.9243L17.3556 15.3875C17.9764 16.0075 18.3322 16.8658 18.3322 17.7441V18.3307H17.7464C16.8556 18.3307 16.0182 17.9841 15.389 17.3541L12.9258 14.8917C12.6 14.5659 12.0734 14.5659 11.7475 14.8917C11.4217 15.2175 11.4217 15.7442 11.7475 16.07L14.2108 18.5324C15.1541 19.4773 16.4107 19.9973 17.7464 19.9973H19.1655C19.6264 19.9973 19.9988 19.6248 19.9988 19.164V17.7441C19.9988 16.4275 19.4647 15.1384 18.5339 14.2092Z" fill="#FF7510"/>
</svg>
