<svg width="22" height="22" viewBox="0 0 22 22" fill="none" xmlns="http://www.w3.org/2000/svg">
<path d="M15.6118 7.37936C15.349 7.44918 15.1128 7.59537 14.933 7.79943C14.7533 8.00349 14.6381 8.25627 14.602 8.52579C14.5659 8.79532 14.6106 9.06949 14.7303 9.31365C14.85 9.5578 15.0395 9.76097 15.2746 9.89747C15.5098 10.034 15.7802 10.0977 16.0516 10.0805C16.323 10.0634 16.5832 9.96611 16.7993 9.80108C17.0154 9.63605 17.1778 9.41063 17.2658 9.15334C17.3538 8.89605 17.3636 8.61844 17.2939 8.35561C17.2475 8.18104 17.1673 8.01731 17.0577 7.87377C16.9481 7.73023 16.8112 7.60969 16.655 7.51903C16.4988 7.42837 16.3263 7.36938 16.1473 7.34541C15.9683 7.32145 15.7863 7.33298 15.6118 7.37936Z" fill="#FF7510"/>
<path d="M11.0297 4.62936C10.7669 4.69918 10.5307 4.84537 10.351 5.04943C10.1712 5.25349 10.0561 5.50627 10.02 5.77579C9.98389 6.04532 10.0285 6.31949 10.1483 6.56365C10.268 6.8078 10.4574 7.01097 10.6926 7.14747C10.9278 7.28397 11.1982 7.34767 11.4696 7.33051C11.741 7.31335 12.0012 7.21611 12.2173 7.05108C12.4334 6.88604 12.5958 6.66063 12.6838 6.40334C12.7718 6.14605 12.7816 5.86844 12.7118 5.60561C12.6655 5.43104 12.5852 5.26731 12.4756 5.12377C12.366 4.98023 12.2292 4.85969 12.073 4.76903C11.9168 4.67837 11.7443 4.61938 11.5653 4.59541C11.3863 4.57145 11.2043 4.58298 11.0297 4.62936Z" fill="#FF7510"/>
<path d="M6.44771 7.37936C6.1849 7.44918 5.94869 7.59537 5.76895 7.79943C5.58922 8.00349 5.47403 8.25627 5.43794 8.52579C5.40186 8.79532 5.4465 9.06949 5.56623 9.31365C5.68596 9.5578 5.87539 9.76097 6.11058 9.89747C6.34577 10.034 6.61615 10.0977 6.88754 10.0805C7.15893 10.0634 7.41914 9.96611 7.63526 9.80108C7.85139 9.63605 8.01373 9.41063 8.10175 9.15334C8.18977 8.89605 8.19953 8.61844 8.12979 8.35561C8.08347 8.18104 8.00322 8.01731 7.89361 7.87377C7.784 7.73023 7.64719 7.60969 7.49098 7.51903C7.33478 7.42837 7.16225 7.36938 6.98324 7.34541C6.80423 7.32145 6.62226 7.33298 6.44771 7.37936Z" fill="#FF7510"/>
<path d="M6.44771 12.8794C6.1849 12.9492 5.94869 13.0954 5.76895 13.2994C5.58922 13.5035 5.47403 13.7563 5.43794 14.0258C5.40186 14.2953 5.4465 14.5695 5.56623 14.8136C5.68596 15.0578 5.87539 15.261 6.11058 15.3975C6.34577 15.534 6.61615 15.5977 6.88754 15.5805C7.15893 15.5634 7.41914 15.4661 7.63526 15.3011C7.85139 15.136 8.01373 14.9106 8.10175 14.6533C8.18977 14.3961 8.19953 14.1184 8.12979 13.8556C8.08347 13.681 8.00322 13.5173 7.89361 13.3738C7.784 13.2302 7.64719 13.1097 7.49098 13.019C7.33478 12.9284 7.16225 12.8694 6.98324 12.8454C6.80423 12.8214 6.62226 12.833 6.44771 12.8794Z" fill="#FF7510"/>
<path d="M11.3822 0.00664398C9.90641 -0.0446726 8.43534 0.201702 7.05675 0.731078C5.67816 1.26046 4.42027 2.062 3.35808 3.08791C2.2959 4.11383 1.45115 5.34312 0.874219 6.70249C0.297285 8.06187 -3.04632e-05 9.52349 2.34109e-09 11.0002C0.00339646 13.9166 1.16341 16.7125 3.22558 18.7747C5.28774 20.8368 8.08366 21.9968 11 22.0002C11.3098 22.0002 11.6142 21.9801 11.9167 21.9544C12.1462 21.935 12.36 21.83 12.5156 21.6601C12.6712 21.4903 12.7571 21.2681 12.7563 21.0377L12.727 17.7487C12.7196 17.0988 12.906 16.4614 13.2626 15.9179C13.6191 15.3744 14.1295 14.9495 14.7286 14.6975C15.3277 14.4454 15.9884 14.3777 16.6262 14.5028C17.264 14.628 17.8501 14.9404 18.3095 15.4002L18.4012 15.4919C18.6093 15.7018 18.8671 15.8556 19.1506 15.9391C19.4341 16.0226 19.7341 16.0331 20.0228 15.9695C20.3067 15.9099 20.5712 15.7798 20.7917 15.5913C21.0123 15.4028 21.1819 15.1618 21.285 14.8906C21.7911 13.5617 22.033 12.1468 21.9972 10.7252C21.8941 7.93307 20.7457 5.28158 18.7796 3.29631C16.8135 1.31105 14.1733 0.136914 11.3822 0.00664398ZM19.6158 14.1233L19.6029 14.1105C18.8864 13.3952 17.9733 12.9091 16.9798 12.7142C15.9862 12.5194 14.9572 12.6244 14.0235 13.0161C13.0899 13.4077 12.2938 14.0682 11.7366 14.9136C11.1795 15.759 10.8864 16.751 10.8946 17.7634L10.9166 20.1669C8.48543 20.156 6.1582 19.1797 4.44685 17.4529C2.73551 15.7261 1.78023 13.3901 1.79117 10.959C1.80211 8.52783 2.77837 6.20059 4.50519 4.48925C6.23201 2.7779 8.56793 1.82262 10.9991 1.83356C11.1063 1.83356 11.2145 1.83356 11.3227 1.83906C13.6477 1.94827 15.8468 2.92691 17.4844 4.58105C19.1219 6.2352 20.0782 8.44414 20.1639 10.7701C20.1942 11.9101 20.0091 13.0455 19.6185 14.1169L19.6158 14.1233Z" fill="#FF7510"/>
</svg>
