<svg width="40" height="40" viewBox="0 0 40 40" fill="none" xmlns="http://www.w3.org/2000/svg">
<path d="M24.1921 9.62663L30.3754 15.81L8.13542 38.0466C6.88542 39.2966 5.18875 40 3.42208 40H0.000416686V36.5783C0.000416686 34.81 0.702083 33.115 1.95375 31.865L24.1921 9.62663ZM38.5754 1.42496C36.8687 -0.281702 34.1004 -0.281702 32.3921 1.42496L26.5471 7.26996L32.7304 13.4533L38.5754 7.6083C40.2821 5.90163 40.2821 3.1333 38.5754 1.42496ZM20.4437 8.65997L17.9437 6.15997L14.1887 9.91496C13.8637 10.24 13.4371 10.4033 13.0104 10.4033C12.5837 10.4033 12.1571 10.24 11.8321 9.91496C11.1804 9.2633 11.1804 8.20996 11.8321 7.5583L15.5871 3.8033L13.4937 1.70996C11.2154 -0.570036 7.52208 -0.570036 5.24375 1.7083L1.70875 5.2433C-0.569583 7.52163 -0.569583 11.215 1.70875 13.4933L8.66042 20.445L20.4454 8.65997H20.4437ZM19.5554 31.3416L26.5071 38.2933C28.7854 40.5716 32.4787 40.5716 34.7571 38.2933L38.2921 34.7583C40.5704 32.48 40.5704 28.7866 38.2921 26.5083L36.1987 24.415L32.4437 28.17C31.7921 28.8216 30.7387 28.8216 30.0871 28.17C29.7621 27.845 29.5988 27.4183 29.5988 26.9916C29.5988 26.565 29.7621 26.1383 30.0871 25.8133L33.8421 22.0583L31.3421 19.5583L19.5571 31.3433L19.5554 31.3416Z" fill="url(#paint0_linear_1311_12469)"/>
<defs>
<linearGradient id="paint0_linear_1311_12469" x1="-2.74744e-07" y1="18.3538" x2="40.0008" y2="18.3538" gradientUnits="userSpaceOnUse">
<stop stop-color="#573BFF"/>
<stop offset="1" stop-color="#FF8A7A" stop-opacity="0.97"/>
</linearGradient>
</defs>
</svg>
