<svg width="40" height="40" viewBox="0 0 40 40" fill="none" xmlns="http://www.w3.org/2000/svg">
<path d="M39.935 28.8933C39.3817 23.8983 35.1383 20 30 20C17.4767 20.3233 16.505 38.1867 28.83 39.925C35.1083 40.7567 40.7217 35.175 39.935 28.8917V28.8933ZM33.3333 33.3333C32.6817 33.985 31.6283 33.985 30.9767 33.3333L28.8217 31.1783C28.5083 30.865 28.3333 30.4417 28.3333 30V26.6667C28.3433 24.4867 31.6583 24.4883 31.6667 26.6667V29.31L33.3333 30.9767C33.985 31.6283 33.985 32.6817 33.3333 33.3333ZM30 16.6667C33.9883 16.6667 37.5567 18.4267 40 21.2017V15C40 10.405 36.2617 6.66667 31.6667 6.66667H29.8317C29.0567 2.86833 25.6917 0 21.6667 0H18.3333C14.31 0 10.9433 2.86833 10.1683 6.66667H8.33333C3.73833 6.66667 0 10.405 0 15V20H21.2017C23.55 17.9317 26.625 16.6667 30 16.6667ZM18.3333 3.33333H21.6667C23.8367 3.33333 25.67 4.73167 26.36 6.66667H13.6417C14.3317 4.73167 16.165 3.33333 18.335 3.33333H18.3333ZM21.2017 40H8.33333C3.73833 40 0 36.2617 0 31.6667V23.3333H18.465C15.2333 28.515 16.5783 36.2083 21.2017 40Z" fill="url(#paint0_linear_1311_12462)"/>
<defs>
<linearGradient id="paint0_linear_1311_12462" x1="-2.74799e-07" y1="18.3564" x2="40.0089" y2="18.3564" gradientUnits="userSpaceOnUse">
<stop stop-color="#573BFF"/>
<stop offset="1" stop-color="#FF8A7A" stop-opacity="0.97"/>
</linearGradient>
</defs>
</svg>
