<svg width="44" height="40" viewBox="0 0 44 40" fill="none" xmlns="http://www.w3.org/2000/svg">
<path d="M44 13.6259V34.5492C44 35.0309 43.8068 35.4928 43.463 35.8335C43.1192 36.1741 42.6529 36.3654 42.1667 36.3654C41.6804 36.3654 41.2141 36.1741 40.8703 35.8335C40.5265 35.4928 40.3333 35.0309 40.3333 34.5492V19.5687L26.7666 25.991C25.3361 26.8274 23.7031 27.2631 22.0421 27.2514C20.3001 27.2541 18.5898 26.7904 17.0921 25.9092L3.56202 19.5287C2.49846 18.9621 1.60733 18.1239 0.98108 17.101C0.354831 16.0781 0.0162861 14.9079 0.000573039 13.7116C-0.01514 12.5154 0.292551 11.3368 0.89172 10.2981C1.49089 9.25947 2.3597 8.39856 3.40802 7.80475C3.45752 7.77568 3.51068 7.74844 3.56202 7.72301L17.2332 1.26076C18.7092 0.421035 20.3843 -0.0140203 22.0863 0.000344542C23.7882 0.0147094 25.4556 0.477976 26.9169 1.34249L40.4378 7.72301C41.5047 8.30782 42.3963 9.16202 43.022 10.1988C43.6476 11.2356 43.9851 12.418 44 13.6259ZM22.0403 30.8803C19.6946 30.8855 17.3893 30.2764 15.3577 29.1149L7.3332 25.3208V30.2246C7.33429 32.1635 7.96087 34.0514 9.12149 35.6125C10.2821 37.1737 11.916 38.3265 13.7847 38.9027C16.4547 39.6622 19.2223 40.0312 21.9999 39.9979C24.7779 40.0288 27.5455 39.6574 30.2151 38.8955C32.0838 38.3193 33.7177 37.1664 34.8783 35.6053C36.039 34.0441 36.6656 32.1563 36.6666 30.2174V25.3298L28.4918 29.1985C26.5294 30.3153 24.3033 30.8969 22.0403 30.884V30.8803Z" fill="url(#paint0_linear_1311_12475)"/>
<defs>
<linearGradient id="paint0_linear_1311_12475" x1="-3.02212e-07" y1="18.353" x2="44" y2="18.353" gradientUnits="userSpaceOnUse">
<stop stop-color="#573BFF"/>
<stop offset="1" stop-color="#FF8A7A" stop-opacity="0.97"/>
</linearGradient>
</defs>
</svg>
