<svg width="28" height="28" viewBox="0 0 28 28" fill="none" xmlns="http://www.w3.org/2000/svg">
<path d="M23.335 13.9914C22.6192 13.9913 21.9131 14.156 21.2713 14.4729C20.6295 14.7897 20.0694 15.2501 19.6343 15.8184L19.5526 15.7834C19.8735 14.7895 19.9216 13.7276 19.6919 12.7086C19.4622 11.6897 18.9631 10.7512 18.2468 9.991C17.5305 9.23083 16.6232 8.67693 15.6198 8.38715C14.6163 8.09736 13.5534 8.08232 12.5421 8.3436L12.436 8.14294C13.2834 7.38895 13.8268 6.3518 13.9643 5.22585C14.1018 4.09991 13.824 2.96247 13.1829 2.02669C12.5418 1.09091 11.5815 0.421038 10.4819 0.142604C9.38231 -0.13583 8.21891 -0.00370979 7.20974 0.514204C6.20057 1.03212 5.41491 1.90028 5 2.95597C4.58509 4.01167 4.5694 5.18245 4.95588 6.24888C5.34236 7.31532 6.10448 8.20421 7.09941 8.74898C8.09434 9.29374 9.25379 9.45698 10.3605 9.20811L10.4456 9.36794C9.27902 10.2632 8.49424 11.5665 8.24884 13.0164C8.00345 14.4663 8.31559 15.9553 9.12262 17.1846L6.92346 19.2414C5.92942 18.6922 4.76922 18.5244 3.66028 18.7693C2.55134 19.0142 1.56976 19.6551 0.899487 20.5718C0.229213 21.4886 -0.083752 22.6184 0.0192378 23.7493C0.122228 24.8803 0.634104 25.9349 1.45895 26.7156C2.28379 27.4962 3.36498 27.9492 4.49992 27.9898C5.63486 28.0304 6.74565 27.6557 7.62414 26.936C8.50263 26.2163 9.08852 25.2009 9.27202 24.0802C9.45552 22.9594 9.22404 21.8102 8.62096 20.8479L10.7653 18.8436C11.943 19.6308 13.3672 19.9618 14.7714 19.7748C16.1756 19.5878 17.4635 18.8955 18.3941 17.8274L18.7196 17.9663C18.5784 18.9083 18.7288 19.871 19.1507 20.725C19.5726 21.5791 20.2458 22.2835 21.0798 22.7438C21.9137 23.2041 22.8686 23.3981 23.8161 23.2999C24.7636 23.2016 25.6583 22.8158 26.3801 22.1942C27.1018 21.5725 27.6161 20.7449 27.8538 19.8225C28.0915 18.9001 28.0412 17.927 27.7097 17.034C27.3781 16.141 26.7813 15.3708 25.9993 14.8269C25.2172 14.283 24.2875 13.9915 23.335 13.9914ZM7.00162 4.6581C7.00162 4.19661 7.13847 3.74549 7.39486 3.36177C7.65125 2.97806 8.01567 2.67899 8.44203 2.50239C8.86839 2.32578 9.33754 2.27957 9.79017 2.36961C10.2428 2.45964 10.6585 2.68187 10.9849 3.00819C11.3112 3.33451 11.5334 3.75027 11.6235 4.20289C11.7135 4.65552 11.6673 5.12467 11.4907 5.55103C11.3141 5.97739 11.015 6.34181 10.6313 6.5982C10.2476 6.85459 9.79645 6.99144 9.33496 6.99144C8.71612 6.99144 8.12262 6.7456 7.68504 6.30802C7.24746 5.87044 7.00162 5.27694 7.00162 4.6581ZM4.66829 25.6581C4.2068 25.6581 3.75567 25.5213 3.37196 25.2649C2.98824 25.0085 2.68917 24.6441 2.51257 24.2177C2.33597 23.7913 2.28976 23.3222 2.37979 22.8696C2.46982 22.4169 2.69205 22.0012 3.01837 21.6749C3.3447 21.3485 3.76046 21.1263 4.21308 21.0363C4.6657 20.9462 5.13486 20.9924 5.56122 21.1691C5.98758 21.3457 6.35199 21.6447 6.60838 22.0284C6.86477 22.4122 7.00162 22.8633 7.00162 23.3248C7.00162 23.9436 6.75579 24.5371 6.31821 24.9747C5.88062 25.4123 5.28713 25.6581 4.66829 25.6581ZM14.0016 17.4914C13.2441 17.49 12.5075 17.2427 11.9025 16.7869C11.2974 16.3311 10.8566 15.6913 10.6462 14.9636C10.4358 14.2358 10.4672 13.4595 10.7356 12.7511C11.0041 12.0428 11.4951 11.4406 12.135 11.0351L12.6098 10.7819C13.0869 10.5744 13.6043 10.4758 14.1243 10.4934C14.6443 10.511 15.1538 10.6444 15.6158 10.8837C16.0778 11.123 16.4806 11.4623 16.795 11.877C17.1093 12.2916 17.3272 12.7711 17.4329 13.2805C17.5386 13.79 17.5294 14.3166 17.4059 14.822C17.2824 15.3275 17.0478 15.799 16.7191 16.2024C16.3905 16.6057 15.976 16.9307 15.5059 17.1537C15.0358 17.3767 14.5219 17.4921 14.0016 17.4914ZM23.335 20.9914C22.8735 20.9914 22.4223 20.8546 22.0386 20.5982C21.6549 20.3418 21.3558 19.9774 21.1792 19.551C21.0026 19.1247 20.9564 18.6555 21.0465 18.2029C21.1365 17.7503 21.3587 17.3345 21.685 17.0082C22.0114 16.6819 22.4271 16.4596 22.8797 16.3696C23.3324 16.2796 23.8015 16.3258 24.2279 16.5024C24.6542 16.679 25.0187 16.9781 25.2751 17.3618C25.5314 17.7455 25.6683 18.1966 25.6683 18.6581C25.6683 19.2769 25.4225 19.8704 24.9849 20.308C24.5473 20.7456 23.9538 20.9914 23.335 20.9914Z" fill="#FF7510"/>
</svg>
