<svg width="28" height="28" viewBox="0 0 28 28" fill="none" xmlns="http://www.w3.org/2000/svg">
<path d="M28.0012 7V18.7845C28.0012 21.2777 27.0305 23.6215 25.2677 25.3843L22.9927 27.6593C22.7652 27.8868 22.4665 28.0012 22.1678 28.0012C21.8692 28.0012 21.5705 27.8868 21.343 27.6593C20.8868 27.2032 20.8868 26.4658 21.343 26.0097L23.618 23.7347C24.9398 22.4128 25.6678 20.6547 25.6678 18.7845V7C25.6678 6.35717 25.144 5.83333 24.5012 5.83333C23.8583 5.83333 23.3345 6.35717 23.3345 7C23.3345 7 23.3205 16.3835 23.3193 16.4115C23.3018 17.1838 23.0405 17.9515 22.5167 18.5768L19.509 21.7082C19.2803 21.9473 18.9747 22.0663 18.6678 22.0663C18.3762 22.0663 18.0857 21.9578 17.8593 21.7408C17.395 21.294 17.3798 20.5555 17.8267 20.0912L20.7818 17.0182C20.9335 16.835 21.0047 16.5888 21.0012 16.3357C21.0012 16.3357 21.0012 16.3345 21.0012 16.3333V16.282C20.986 16.0242 20.8903 15.7617 20.7048 15.554C20.2767 15.0768 19.5405 15.036 19.0645 15.4642L15.3743 18.8603C15.9927 20.0282 16.3357 21.3383 16.3357 22.6823V26.8345C16.3357 27.4785 15.813 28.0012 15.169 28.0012C14.525 28.0012 14.0023 27.4785 14.0023 26.8345V22.6823C14.0023 21.0548 13.3163 19.4915 12.1182 18.389L8.9285 15.4537C8.46417 15.0372 7.72683 15.0757 7.29867 15.554C6.916 15.9822 6.9055 16.6367 7.27417 17.0765L10.2725 20.1927C10.7193 20.657 10.7053 21.3955 10.2398 21.8423C9.77783 22.2892 9.037 22.2763 8.59017 21.8097L5.53817 18.6352C5.0015 17.997 4.72967 17.2352 4.69467 16.4722C4.68883 16.4255 4.66667 7.00117 4.66667 7.00117C4.66667 6.35833 4.14283 5.8345 3.5 5.8345C2.85717 5.8345 2.33333 6.35833 2.33333 7.00117V18.7857C2.33333 20.6558 3.06133 22.4128 4.38317 23.7358L6.65817 26.0108C7.11433 26.467 7.11433 27.2043 6.65817 27.6605C6.43067 27.888 6.132 28.0023 5.83333 28.0023C5.53467 28.0023 5.236 27.888 5.0085 27.6605L2.7335 25.3855C0.970667 23.6227 0 21.2788 0 18.7857V7C0 5.07033 1.57033 3.5 3.5 3.5C5.42967 3.5 7 5.07033 7 7V13.0503C8.1655 12.6397 9.51067 12.845 10.4953 13.7258L13.6967 16.6717C13.7982 16.765 13.888 16.8677 13.9848 16.9657L17.4942 13.7363C18.487 12.8473 19.8345 12.6408 21 13.0515V7.00117C21 5.0715 22.5703 3.50117 24.5 3.50117C26.4297 3.50117 28 5.0715 28 7.00117L28.0012 7ZM8.16783 3.73333C8.16783 1.67417 9.73817 0 11.6678 0C12.5802 0 13.391 0.315 14.0012 0.848167C14.6113 0.315 15.4222 0 16.3345 0C18.2642 0 19.8345 1.67533 19.8345 3.73333C19.8345 6.07133 17.4522 8.47467 15.4548 10.0777C15.0337 10.416 14.518 10.5852 14.0012 10.5852C13.4843 10.5852 12.9687 10.416 12.5463 10.0765C10.549 8.4735 8.16783 6.07017 8.16783 3.73217V3.73333ZM10.5012 3.73333C10.5012 4.788 11.8452 6.52283 14.0082 8.25883C16.1572 6.52283 17.5012 4.788 17.5012 3.73333C17.5012 2.961 16.9773 2.33333 16.3345 2.33333C15.7967 2.33333 15.1678 2.639 15.1678 3.5C15.1678 4.144 14.6452 4.66667 14.0012 4.66667C13.3572 4.66667 12.8345 4.144 12.8345 3.5C12.8345 2.639 12.2057 2.33333 11.6678 2.33333C11.025 2.33333 10.5012 2.96217 10.5012 3.73333Z" fill="#FF7510"/>
</svg>
