<svg width="30" height="27" viewBox="0 0 30 27" fill="none" xmlns="http://www.w3.org/2000/svg">
<path d="M28.7501 16.7124H27.9163C27.6038 16.7124 27.2939 16.7368 26.9851 16.7857L18.178 9.99324L20.2879 7.91592C20.7866 7.42487 20.8041 6.60988 20.3267 6.09827C19.8479 5.58536 19.0555 5.56865 18.5592 6.05842L13.3432 11.1939C13.0832 11.4612 12.7295 11.5988 12.3582 11.5667C11.9858 11.5358 11.6583 11.3417 11.4345 11.0203C11.092 10.5319 11.197 9.767 11.6445 9.30551L17.523 3.61217C18.6367 2.53623 20.3779 2.27271 21.7403 2.97586L24.6352 4.46444C25.4977 4.90792 26.4651 5.14188 27.4289 5.14188H28.7488C29.44 5.14188 29.9987 4.56727 29.9987 3.85641C29.9987 3.14554 29.44 2.57094 28.7488 2.57094H27.4289C26.8501 2.57094 26.2689 2.43082 25.7514 2.16473L22.859 0.676157C20.5791 -0.497476 17.668 -0.0617025 15.8081 1.74053L15.0356 2.48867L14.1607 1.66854C13.012 0.592601 11.5245 0 9.92334 0C8.95963 0 7.99842 0.233955 7.1397 0.674871L4.24732 2.16344C3.72859 2.42954 3.14737 2.56965 2.56864 2.56965H1.2512C0.559977 2.56965 0.00124995 3.14426 0.00124995 3.85512C0.00124995 4.56599 0.559977 5.14059 1.2512 5.14059H2.57114C3.53485 5.14059 4.50231 4.90535 5.36603 4.46315L8.26091 2.97458C9.53835 2.31385 11.3333 2.49253 12.4782 3.56846L13.212 4.25619L9.90459 7.45958C8.56339 8.8376 8.34965 11.0165 9.40711 12.5218C10.0571 13.4512 11.3483 14.1402 12.462 14.1402C13.4532 14.1402 14.4044 13.7391 15.0919 13.0308L16.3493 11.7929L24.2815 17.9104C24.2427 17.9387 16.5343 23.8827 16.5343 23.8827C15.6306 24.6052 14.3694 24.6052 13.4469 23.8686L5.83351 17.9966C4.7598 17.1674 3.42736 16.7111 2.08366 16.7111H1.24995C0.558727 16.7111 0 17.2857 0 17.9966C0 18.7074 0.558727 19.282 1.24995 19.282H2.08366C2.88988 19.282 3.6886 19.5558 4.33357 20.0533L11.9295 25.9125C12.8357 26.6375 13.9219 27 15.0056 27C16.0831 27 17.1593 26.6414 18.0517 25.9266L25.6677 20.0546C26.3114 19.5571 27.1101 19.2833 27.9163 19.2833H28.7501C29.4413 19.2833 30 18.7087 30 17.9979C30 17.287 29.4413 16.7124 28.7501 16.7124Z" fill="#FF7510"/>
</svg>
