<svg width="98" height="70" viewBox="0 0 98 70" fill="none" xmlns="http://www.w3.org/2000/svg">
<path d="M17.5164 26.6235L18.8675 28.3436L19.017 28.533L19.2115 28.7823C20.1787 23.6022 22.3674 18.8558 25.4735 14.8424C24.4415 16.8316 23.9927 18.9206 24.1672 20.9997C22.0533 23.4476 20.438 26.1648 19.4309 29.0665L20.064 29.8791C21.0711 27.2816 22.5369 24.7987 24.4016 22.5203C25.0746 25.4568 26.9792 28.3136 30.1401 30.7716C28.8089 33.3591 27.732 36.0115 26.9493 38.6539L28.7242 40.9174C29.4521 37.9509 30.514 34.9446 31.8751 31.9931C35.395 34.2566 39.6926 35.7822 44.2695 36.5599C43.6313 40.7529 43.1577 44.9309 42.9084 48.8496C42.5644 48.7898 42.2204 48.72 41.8813 48.6502C42.2204 48.7798 42.5594 48.9095 42.8984 49.0391C43.8307 49.3931 44.768 49.7271 45.7054 50.0512C46.8072 50.4301 47.909 50.794 49.0109 51.1381C53.5578 51.3524 58.1646 50.9785 62.517 50.0013C62.6068 51.4771 62.6467 52.908 62.6417 54.279C62.6417 54.304 62.6417 54.3239 62.6417 54.3438C63.574 54.4884 64.4914 54.6131 65.4087 54.7228C65.4187 54.3389 65.4337 53.9599 65.4337 53.5611C65.4337 52.185 65.3838 50.7591 65.2741 49.2884C68.1259 48.4558 70.8332 47.3489 73.2911 45.9629C75.3601 44.8013 77.14 43.505 78.6108 42.119C78.8302 43.5299 78.9399 44.9309 78.9349 46.3069C78.9249 48.5006 78.6307 50.5099 78.0723 52.3197C77.0004 53.3268 75.764 54.279 74.378 55.1715C74.6522 55.1665 74.9314 55.1715 75.2006 55.1565C75.3851 55.1515 75.5596 55.1316 75.744 55.1216C76.4221 54.6031 77.0652 54.0746 77.6486 53.5262C77.4392 54.0497 77.2098 54.5532 76.9605 55.0368C76.9705 55.0368 76.9805 55.0368 76.9855 55.0319C77.1699 55.0169 77.3444 54.992 77.5239 54.972C78.3416 54.8873 79.1343 54.7876 79.8921 54.653C83.8258 49.0142 86.1392 42.1688 86.1392 34.79C86.1491 15.6151 70.534 0 51.3442 0C44.8229 0 38.7154 1.8098 33.4954 4.9408L34.1535 4.99565L28.9834 8.16653C23.3845 12.868 19.2913 19.2946 17.5164 26.6235ZM27.054 12.9478C27.7968 12.1252 28.5696 11.3424 29.3922 10.5995C31.4513 9.24344 33.8544 8.2812 36.5317 7.76269C35.2105 9.39301 34.6122 11.2078 34.7668 13.0076C31.0824 14.8025 27.8517 17.1258 25.2442 19.828C25.0447 17.4897 25.6629 15.1415 27.054 12.9478ZM30.9827 29.216C27.9464 26.8528 26.1166 24.1107 25.4685 21.2938C28.0511 18.447 31.2569 15.9442 34.9014 13.9399C35.3152 15.7348 36.4819 17.4848 38.4163 18.9854C35.5396 22.1015 33.0168 25.5815 30.9827 29.216ZM44.5587 34.7751C40.1613 34.0272 36.0282 32.5614 32.6479 30.3877C34.5225 26.6385 36.8358 23.0139 39.4782 19.7333C41.6321 21.1143 44.2645 22.0516 47.0615 22.5253C46.0942 26.4241 45.2417 30.5921 44.5587 34.7751ZM48.5173 22.7297C51.3691 23.0488 54.3356 22.8992 57.0976 22.281C58.349 26.1249 59.4459 30.2431 60.3283 34.3862C55.9858 35.3634 51.3292 35.5927 46.8421 35.0942C47.3058 30.8813 47.8741 26.6783 48.5173 22.7297ZM45.7403 49.2485C45.9148 45.3198 46.2289 41.1168 46.6576 36.894C51.3242 37.4125 56.1703 37.1732 60.6873 36.1561C61.505 40.3142 62.0983 44.4722 62.4123 48.376C57.0428 49.5825 51.2843 49.8667 45.7403 49.2485ZM58.4986 21.922C59.9544 21.4982 61.3305 20.9299 62.5868 20.2269C63.6438 19.6336 64.5462 18.9705 65.2991 18.2675C68.3652 21.224 71.0475 24.5644 73.2113 28.0843C72.0297 29.1961 70.6088 30.2281 68.9535 31.1605C66.9892 32.2673 64.8204 33.1547 62.537 33.8228C61.4352 29.7296 60.0641 25.6862 58.4986 21.922ZM75.774 13.1073C76.5916 14.4136 77.1301 15.7647 77.3843 17.1358C74.8117 14.7028 71.6059 12.7135 67.9564 11.2975C67.6174 9.49771 66.5255 7.73777 64.6709 6.21215C66.1566 6.36172 67.5526 6.70075 68.8339 7.20928C71.4115 8.84458 73.7498 10.8339 75.774 13.1073ZM77.5588 18.5966C77.6835 21.4234 76.6415 24.2603 74.4478 26.798C72.1643 23.4077 69.3275 20.2269 66.0868 17.4499C67.4778 15.8345 68.1459 14.0297 68.0661 12.2299C71.7405 13.8452 74.9613 16.014 77.5588 18.5966ZM73.0717 44.3825C70.6387 45.7535 67.9614 46.8504 65.1395 47.678C64.7556 43.7942 64.0078 39.676 62.9857 35.5728C65.3639 34.8798 67.6174 33.9574 69.6665 32.8007C71.3915 31.8285 72.8673 30.7516 74.0988 29.5999C76.113 33.1747 77.5738 36.904 78.3416 40.5834C76.8708 41.9495 75.1158 43.2308 73.0717 44.3825ZM75.3851 28.2538C77.6635 25.6114 78.7554 22.6599 78.6208 19.7183C80.5702 21.8921 82.0758 24.3251 83.073 26.9326C83.3372 27.9896 83.5466 29.0615 83.7012 30.1534C83.5217 33.2146 82.2354 36.2458 79.8622 38.988C79.0545 35.3534 77.514 31.7089 75.3851 28.2538ZM80.4505 49.6623C80.1813 50.0262 79.9021 50.3902 79.593 50.7492C80.1863 48.9095 80.5004 46.8803 80.5054 44.6816C80.5103 43.3056 80.3907 41.9146 80.1614 40.5186C82.3351 38.0008 83.5915 35.2437 83.9405 32.4468C83.9953 33.2245 84.0352 34.0073 84.0352 34.8C84.0402 40.1546 82.734 45.2001 80.4505 49.6623ZM81.672 22.61C80.7945 21.0296 79.7126 19.5538 78.4463 18.1927C78.2419 17.1009 77.853 16.014 77.3046 14.952C79.0844 17.2853 80.5552 19.853 81.672 22.61ZM52.5956 8.33106C52.6255 8.351 52.6554 8.37593 52.6803 8.39587C56.5293 6.75559 60.1638 6.02768 63.4095 6.12739C65.0897 7.50842 66.0818 9.10384 66.3809 10.7292C62.3376 9.38304 57.8006 8.71496 52.9944 8.88447C52.9994 8.91438 53.0044 8.9443 53.0044 8.97421C57.8405 9.07891 62.4074 10.0013 66.4807 11.5717C66.5554 13.1971 65.9522 14.8374 64.6908 16.2982C61.1061 13.4464 57.0777 11.0931 52.8199 9.47278C52.795 9.49771 52.775 9.52762 52.7451 9.54756C56.7785 11.4072 60.5826 13.9848 63.9828 17.036C63.2998 17.6742 62.4821 18.2725 61.5299 18.8109C60.3981 19.4491 59.1467 19.9577 57.8305 20.3415C56.1005 16.3979 54.1561 12.8182 52.097 9.89656C52.0521 9.91152 52.0072 9.92149 51.9624 9.93146C53.6126 12.9578 55.1731 16.6372 56.5592 20.6706C54.0564 21.229 51.3741 21.3636 48.7915 21.0794C49.5044 16.9363 50.2972 13.1323 51.1397 9.97633C51.0899 9.97135 51.045 9.96636 50.9952 9.95639C49.7338 13.0525 48.5422 16.7967 47.4703 20.89C44.9376 20.4612 42.5594 19.6136 40.605 18.3622C43.5366 14.952 46.8072 11.9706 50.2672 9.68716C50.2573 9.67719 50.2423 9.66722 50.2274 9.65725C50.2074 9.64728 50.1875 9.62734 50.1675 9.61238C46.4034 11.6864 42.8386 14.4585 39.6527 17.6892C37.9028 16.3281 36.8508 14.7476 36.4769 13.1223C40.5203 11.128 45.0522 9.73702 49.8385 9.13375C49.8335 9.10384 49.8285 9.07393 49.8235 9.04401C44.9924 9.37307 40.4255 10.5148 36.3472 12.2747C36.2076 10.6444 36.7511 9.00413 37.9476 7.52837C41.5972 7.04974 45.6754 7.34888 49.998 8.54046C50.018 8.51553 50.0379 8.48562 50.0678 8.46069C45.9646 7.0298 42.0858 6.50132 38.6257 6.78052C39.3486 6.06258 40.2311 5.39948 41.288 4.80619C42.3201 4.22287 43.4468 3.74923 44.6384 3.3753C46.4731 4.02344 48.5272 5.57897 50.701 8.10172C50.7409 8.08676 50.7907 8.07679 50.8356 8.06183C49.0707 5.42441 47.3905 3.7592 45.8948 3.0263C48.3777 2.42802 51.055 2.25352 53.6475 2.49782C53.0443 3.38029 52.3712 5.20504 51.6533 8.01198C51.6981 8.01696 51.748 8.02693 51.7929 8.03192C52.9346 5.27983 54.0165 3.50493 54.9787 2.66235C57.7458 3.08613 60.3483 4.0035 62.4273 5.3945C62.8212 5.37954 63.2051 5.38453 63.584 5.40447C61.2856 3.8639 58.4089 2.85181 55.3526 2.38315C55.3676 2.37817 55.3776 2.37817 55.3875 2.36819C59.5306 2.88172 63.4344 4.16304 66.9543 6.07754C63.0056 4.89095 58.0349 5.54407 52.5956 8.33106ZM48.966 2.20865C47.7246 2.31834 46.4931 2.50281 45.3115 2.79198C45.2317 2.76206 45.147 2.74711 45.0672 2.72218C46.3435 2.47289 47.6448 2.30338 48.966 2.20865ZM43.4119 3.08613C43.5815 3.10607 43.751 3.131 43.9205 3.17089C42.6093 3.57971 41.3628 4.10321 40.2261 4.74636C39.0595 5.40447 38.0723 6.14235 37.2796 6.93009C35.2504 7.22424 33.3858 7.81255 31.7205 8.67009C35.1507 6.08751 39.1143 4.16304 43.4119 3.08613Z" fill="#51666C"/>
<path d="M62.2828 65.6064C63.2401 64.699 64.0079 63.2682 64.5513 61.3138C63.7586 61.1991 62.9509 61.0595 62.1432 60.9199C61.4054 60.7953 60.6675 60.6607 59.9196 60.5161C55.2929 61.3088 50.4419 61.4434 45.7503 60.9199C45.6706 59.6984 45.6207 58.3124 45.6008 56.7668C44.6335 56.4478 43.6713 56.1087 42.7091 55.7697C42.729 57.5496 42.8038 59.14 42.9484 60.526C37.5589 59.6087 32.4885 57.8089 28.3454 55.1465C27.8817 53.4065 27.6374 51.4471 27.6424 49.2634C27.3133 49.0989 26.9843 48.9194 26.6552 48.7449L25.5584 48.6402C25.6182 50.4749 25.8675 52.175 26.3062 53.7056C24.636 52.4044 23.2699 51.0134 22.193 49.5625C21.9737 49.1338 21.7643 48.7 21.5648 48.2563L21.3056 48.2314L21.0663 48.2064L19.1617 48.022C24.3817 60.6706 36.8409 69.6 51.3493 69.6C59.4809 69.6 66.9694 66.788 72.9023 62.0965C71.8304 62.0517 70.7435 61.9819 69.6417 61.8871C67.3682 63.4277 64.9053 64.6741 62.2828 65.6064ZM62.1083 61.1493C61.6497 63.6172 60.9267 65.3522 59.9944 66.3094C55.7666 67.2617 51.2296 67.4811 46.8671 66.9974C46.4035 66.115 46.0495 64.4398 45.8351 62.0068C51.2396 62.6001 56.8684 62.3259 62.1083 61.1493ZM43.073 61.6129C43.4021 64.0609 43.9405 65.761 44.6385 66.6833C43.7212 66.5288 42.8088 66.3294 41.9164 66.11C37.7882 64.8636 34.0041 62.8244 30.7385 60.1671C29.9009 59.0752 29.2079 57.7989 28.6993 56.3181C32.7826 58.9406 37.7683 60.7155 43.073 61.6129ZM23.4145 51.7911C24.3369 52.868 25.4188 53.915 26.6851 54.9022C27.089 56.004 27.6174 56.9962 28.2157 57.8986C26.386 56.0639 24.7756 54.0148 23.4145 51.7911Z" fill="#51666C"/>
<path d="M94.3059 38.8533L95.4526 36.7992L96.9832 34.0521L86.5232 27.3663C87.7148 29.9389 88.5474 32.9254 89.1208 35.7373C89.1208 35.7423 89.1208 35.7473 89.1208 35.7572C89.1208 35.7622 89.1258 35.7622 89.1258 35.7622C90.2176 41.1069 90.4021 45.8083 90.4021 45.8083L92.3465 42.3333C93.9768 48.2862 91.4491 53.0824 85.0475 55.4706C84.16 55.8046 83.1878 56.0938 82.1658 56.3381C80.8196 56.6572 79.4286 56.9164 78.0027 57.1258C77.1801 57.2505 76.3475 57.3502 75.4999 57.4349C75.46 57.4399 75.4152 57.4449 75.3703 57.4499C75.1908 57.4698 75.0063 57.4848 74.8268 57.5047C73.7998 57.5945 72.7428 57.6443 71.6809 57.6742C70.9779 57.6942 70.2749 57.7091 69.562 57.7042C68.146 57.6942 66.6952 57.6294 65.2244 57.5147C64.342 57.4449 63.4495 57.3552 62.5521 57.2505C57.1875 56.6073 51.5138 55.2562 45.6108 53.1024C44.6635 52.7534 43.7113 52.3844 42.754 51.9956C41.1237 51.3375 39.4834 50.6295 37.8232 49.8418L34.0042 50.0162C36.836 51.4222 39.7576 52.6786 42.7141 53.8054C43.6714 54.1693 44.6336 54.5183 45.5958 54.8573C51.1997 56.8018 56.8984 58.2376 62.3926 59.1201C63.2501 59.2597 64.1076 59.3943 64.9552 59.509C65.6382 59.5987 66.3113 59.6635 66.9894 59.7383C68.6895 59.9228 70.3647 60.0574 72 60.1272C73.0569 60.1671 74.0989 60.192 75.121 60.187C79.0996 60.1721 82.7939 59.7981 86.0396 59.0303C87.1813 58.7611 88.2533 58.4321 89.2404 58.0631C98.5985 54.5732 99.9297 47.2093 94.3059 38.8533Z" fill="#51666C"/>
<path d="M20.1887 46.0327L20.6473 46.0776L22.1131 46.2222L25.5732 46.5562L27.2783 46.7208L27.7469 46.7656L30.8381 47.0598L30.3046 46.3768L29.4122 45.24L28.1508 43.6297L26.2812 41.2465L25.997 40.8825L19.386 32.4468L19.2813 32.3122L18.7977 31.6989L18.7329 31.6092L18.673 31.5294L17.8753 30.5123L17.2471 34.6854L16.8832 37.1134C16.7884 37.0386 16.7037 36.9588 16.609 36.884C16.0406 36.4254 15.4772 35.9667 14.9537 35.503C3.19251 25.2325 1.74168 15.0667 12.7999 10.9436C13.6874 10.6095 14.6596 10.3204 15.6816 10.0761C18.0997 9.5077 20.8169 9.20357 23.7385 9.14374C24.6857 8.44575 26.0219 7.50346 27.5625 6.55618C21.6894 6.09251 16.3048 6.33182 11.8227 7.39377C10.681 7.663 9.5991 7.98707 8.60695 8.35601C-4.74967 13.3417 -1.75328 26.2147 14.4851 38.5991C15.1133 39.0777 15.7714 39.5564 16.4394 40.035V40.04L16.0904 42.3633L15.6068 45.579L18.349 45.8433L20.1887 46.0228V46.0327Z" fill="#51666C"/>
</svg>
