<svg width="18" height="13" viewBox="0 0 18 13" fill="none" xmlns="http://www.w3.org/2000/svg">
<path d="M9.00043 0C8.77262 0 8.54762 0.0382812 8.33387 0.112109L0.444808 2.88203C0.17762 2.97773 0.000432908 3.22383 0.000432908 3.5C0.000432908 3.77617 0.17762 4.02227 0.444808 4.11797L2.07325 4.68945C1.612 5.39492 1.35043 6.22891 1.35043 7.10664V7.875C1.35043 8.65156 1.04668 9.45273 0.723245 10.0844C0.540433 10.4398 0.332308 10.7898 0.0904329 11.1125C0.000432909 11.2301 -0.0248796 11.3832 0.0257454 11.5227C0.0763704 11.6621 0.194495 11.766 0.340745 11.8016L2.14075 12.2391C2.25887 12.2691 2.38543 12.2473 2.4895 12.1844C2.59356 12.1215 2.66668 12.0176 2.68918 11.9C2.93106 10.7297 2.81012 9.67969 2.63012 8.92773C2.54012 8.53945 2.41918 8.14297 2.25043 7.7793V7.10664C2.25043 6.28086 2.53731 5.50156 3.03512 4.87812C3.39793 4.4543 3.86762 4.1125 4.41887 3.90195L8.8345 2.21484C9.06512 2.12734 9.32668 2.23672 9.41668 2.46094C9.50668 2.68516 9.39418 2.93945 9.16356 3.02695L4.74793 4.71406C4.39918 4.84805 4.09262 5.05312 3.84231 5.30469L8.33106 6.87969C8.54481 6.95352 8.76981 6.9918 8.99762 6.9918C9.22543 6.9918 9.45043 6.95352 9.66418 6.87969L17.5561 4.11797C17.8232 4.025 18.0004 3.77617 18.0004 3.5C18.0004 3.22383 17.8232 2.97773 17.5561 2.88203L9.667 0.112109C9.45325 0.0382812 9.22825 0 9.00043 0ZM3.60043 10.2812C3.60043 11.2465 6.01918 12.25 9.00043 12.25C11.9817 12.25 14.4004 11.2465 14.4004 10.2812L13.9701 6.30547L9.97075 7.71094C9.65856 7.82031 9.3295 7.875 9.00043 7.875C8.67137 7.875 8.3395 7.82031 8.03012 7.71094L4.03075 6.30547L3.60043 10.2812Z" fill="#51666C"/>
</svg>
