<svg width="54" height="55" viewBox="0 0 54 55" fill="none" xmlns="http://www.w3.org/2000/svg">
<path d="M26.6681 9.03248C17.2541 9.18773 9.32287 16.966 8.98762 26.3687C8.78962 31.8317 11.0441 37.018 15.1751 40.6022C16.9549 42.148 17.9741 44.524 17.9741 47.2802C17.9741 51.0017 21.0026 54.0302 24.7241 54.0302H29.2241C32.9456 54.0302 35.9741 51.0017 35.9741 47.2802V46.4365C35.9741 44.263 36.9979 42.166 38.8586 40.528C42.7466 37.1125 44.9741 32.194 44.9741 27.0302C44.9741 22.168 43.0639 17.6095 39.5966 14.1985C36.1294 10.7875 31.5349 8.92223 26.6681 9.03248ZM31.4741 47.2802C31.4741 48.5222 30.4661 49.5302 29.2241 49.5302H24.7241C23.4821 49.5302 22.4741 48.5222 22.4741 47.125C22.4741 46.414 22.4044 45.7165 22.3009 45.0302H31.5664C31.5101 45.4937 31.4741 45.964 31.4741 46.4365V47.2802ZM35.8886 37.1485C34.7389 38.1587 33.8119 39.3017 33.0986 40.5302H29.2241V31.1162C31.8364 30.1847 33.7241 27.7097 33.7241 24.7802C33.7241 23.536 32.7184 22.5302 31.4741 22.5302C30.2299 22.5302 29.2241 23.536 29.2241 24.7802C29.2241 26.0245 28.2161 27.0302 26.9741 27.0302C25.7321 27.0302 24.7241 26.0222 24.7241 24.7802C24.7241 23.5382 23.7184 22.5302 22.4741 22.5302C21.2299 22.5302 20.2241 23.536 20.2241 24.7802C20.2241 27.7097 22.1119 30.1847 24.7241 31.1162V40.5302H20.7956C20.0981 39.2747 19.2049 38.1452 18.1226 37.2047C15.0266 34.516 13.3346 30.6257 13.4831 26.5307C13.7351 19.4792 19.6841 13.6472 26.7446 13.5325C26.8211 13.5325 26.8954 13.5325 26.9741 13.5325C30.5426 13.5325 33.8974 14.9027 36.4421 17.4092C39.0431 19.9675 40.4764 23.3852 40.4764 27.0325C40.4764 30.9025 38.8046 34.588 35.8909 37.1507L35.8886 37.1485ZM37.7404 5.59673L40.5191 1.07423C41.1671 0.0122303 42.5531 -0.31852 43.6129 0.33623C44.6726 0.98648 45.0034 2.37023 44.3509 3.42998L41.5721 7.95248C41.1491 8.64548 40.4089 9.02573 39.6529 9.02573C39.2501 9.02573 38.8451 8.91773 38.4784 8.69273C37.4186 8.04248 37.0879 6.65648 37.7404 5.59673ZM52.6534 14.9297L48.3041 16.8917C48.0049 17.029 47.6899 17.092 47.3816 17.092C46.5221 17.092 45.7054 16.5992 45.3296 15.7667C44.8166 14.635 45.3206 13.3007 46.4546 12.7922L50.8039 10.8302C51.9424 10.315 53.2699 10.8235 53.7784 11.9552C54.2914 13.087 53.7874 14.4212 52.6534 14.9297ZM9.41062 3.42773C8.76037 2.36798 9.09337 0.98198 10.1531 0.33398C11.2174 -0.31402 12.5989 0.0189803 13.2469 1.07648L16.0189 5.60123C16.6691 6.66098 16.3361 8.04698 15.2764 8.69498C14.9096 8.91998 14.5024 9.02573 14.1041 9.02573C13.3459 9.02573 12.6079 8.64323 12.1826 7.95023L9.41062 3.42548V3.42773ZM8.32387 15.9175C7.93912 16.7252 7.13362 17.1955 6.29437 17.1955C5.96812 17.1955 5.63737 17.1257 5.32462 16.9727L1.27912 15.0355C0.158621 14.5 -0.316129 13.1567 0.221621 12.0362C0.754871 10.9135 2.10487 10.4342 3.22087 10.9787L7.26637 12.916C8.38687 13.4515 8.86162 14.797 8.32387 15.9175Z" fill="#51666C"/>
</svg>
