<svg width="12" height="16" viewBox="0 0 12 16" fill="none" xmlns="http://www.w3.org/2000/svg">
<path d="M11.7289 4.74236C11.6415 4.83614 11.5374 4.91087 11.4226 4.96226C11.3078 5.01366 11.1844 5.04071 11.0597 5.04189C10.9349 5.04307 10.8112 5.01834 10.6955 4.96912C10.5798 4.9199 10.4745 4.84715 10.3855 4.75503L8.54644 2.85131V12.3326C8.54544 13.3049 8.17827 14.2371 7.52551 14.9247C6.87275 15.6122 5.9877 15.9989 5.06456 16H0.949605C0.697754 16 0.456218 15.8946 0.278133 15.707C0.100047 15.5195 0 15.2651 0 14.9998C0 14.7345 0.100047 14.4801 0.278133 14.2925C0.456218 14.105 0.697754 13.9996 0.949605 13.9996H5.06456C5.48431 13.9996 5.88687 13.824 6.18368 13.5113C6.48049 13.1987 6.64723 12.7747 6.64723 12.3326V2.85131L4.80753 4.75503C4.62571 4.92686 4.38802 5.01828 4.14386 5.01029C3.8997 5.0023 3.66786 4.89551 3.49652 4.71212C3.32518 4.52873 3.22753 4.28285 3.22386 4.02559C3.22019 3.76832 3.31079 3.51946 3.47682 3.33074L5.46086 1.27698C5.60267 1.12895 5.82234 0.90224 6.05088 0.667525C6.46296 0.239782 7.01828 0 7.59684 0C8.17539 0 8.73072 0.239782 9.14279 0.667525C9.37133 0.90224 9.59101 1.12895 9.72838 1.27232L11.7175 3.33074C11.8963 3.5166 11.9978 3.7695 12 4.03407C12.0021 4.29864 11.9046 4.55332 11.7289 4.74236Z" fill="#51666C"/>
</svg>
