<svg width="26" height="30" viewBox="0 0 26 30" fill="none" xmlns="http://www.w3.org/2000/svg">
<path d="M13.2462 7.50256C12.2572 7.50256 11.2905 7.79581 10.4683 8.34522C9.64602 8.89464 9.00515 9.67554 8.6267 10.5892C8.24826 11.5028 8.14924 12.5082 8.34217 13.4781C8.5351 14.448 9.01131 15.3389 9.71058 16.0382C10.4098 16.7375 11.3008 17.2137 12.2707 17.4066C13.2406 17.5995 14.246 17.5005 15.1596 17.1221C16.0732 16.7436 16.8541 16.1028 17.4036 15.2805C17.953 14.4582 18.2462 13.4915 18.2462 12.5026C18.2462 11.1765 17.7194 9.90474 16.7817 8.96705C15.844 8.02935 14.5723 7.50256 13.2462 7.50256ZM13.2462 15.0027C12.7517 15.0027 12.2683 14.856 11.8572 14.5813C11.4461 14.3066 11.1256 13.9162 10.9364 13.4593C10.7472 13.0025 10.6977 12.4998 10.7942 12.0149C10.8906 11.5299 11.1287 11.0845 11.4784 10.7348C11.828 10.3852 12.2735 10.1471 12.7584 10.0506C13.2434 9.95417 13.7461 10.0037 14.2029 10.1929C14.6597 10.3821 15.0501 10.7026 15.3249 11.1137C15.5996 11.5248 15.7462 12.0082 15.7462 12.5026C15.7462 13.1657 15.4828 13.8016 15.0139 14.2704C14.5451 14.7393 13.9092 15.0027 13.2462 15.0027Z" fill="#012935"/>
<path d="M13.2447 30.0028C12.1921 30.0082 11.1535 29.7614 10.216 29.2829C9.27841 28.8044 8.46912 28.1083 7.85586 27.2528C3.09206 20.6815 0.675781 15.7414 0.675781 12.5689C0.675781 9.23542 2 6.03847 4.35713 3.68134C6.71425 1.32422 9.9112 0 13.2447 0C16.5782 0 19.7751 1.32422 22.1322 3.68134C24.4894 6.03847 25.8136 9.23542 25.8136 12.5689C25.8136 15.7414 23.3973 20.6815 18.6335 27.2528C18.0202 28.1083 17.2109 28.8044 16.2734 29.2829C15.3358 29.7614 14.2973 30.0082 13.2447 30.0028ZM13.2447 2.72878C10.6352 2.73176 8.13339 3.7697 6.28819 5.6149C4.44298 7.46011 3.40504 9.96189 3.40206 12.5714C3.40206 15.0839 5.76834 19.7302 10.0634 25.654C10.428 26.1563 10.9064 26.565 11.4593 26.8469C12.0122 27.1287 12.624 27.2757 13.2447 27.2757C13.8653 27.2757 14.4771 27.1287 15.0301 26.8469C15.583 26.565 16.0613 26.1563 16.426 25.654C20.721 19.7302 23.0873 15.0839 23.0873 12.5714C23.0843 9.96189 22.0464 7.46011 20.2012 5.6149C18.356 3.7697 15.8542 2.73176 13.2447 2.72878Z" fill="#012935"/>
</svg>
