<svg width="19" height="22" viewBox="0 0 19 22" fill="none" xmlns="http://www.w3.org/2000/svg">
<path d="M16.225 7.722V6.41667C16.225 4.71486 15.5428 3.08276 14.3285 1.8794C13.1142 0.67604 11.4673 0 9.75 0C8.03272 0 6.38578 0.67604 5.17148 1.8794C3.95719 3.08276 3.275 4.71486 3.275 6.41667V7.722C2.45116 8.07831 1.74995 8.66481 1.25711 9.40978C0.764277 10.1547 0.501182 11.0259 0.5 11.9167V17.4167C0.501469 18.6318 0.989216 19.7967 1.85625 20.656C2.72329 21.5152 3.89882 21.9985 5.125 22H14.375C15.6012 21.9985 16.7767 21.5152 17.6437 20.656C18.5108 19.7967 18.9985 18.6318 19 17.4167V11.9167C18.9988 11.0259 18.7357 10.1547 18.2429 9.40978C17.7501 8.66481 17.0488 8.07831 16.225 7.722ZM5.125 6.41667C5.125 5.20109 5.61228 4.0353 6.47963 3.17576C7.34699 2.31622 8.52337 1.83333 9.75 1.83333C10.9766 1.83333 12.153 2.31622 13.0204 3.17576C13.8877 4.0353 14.375 5.20109 14.375 6.41667V7.33333H5.125V6.41667ZM17.15 17.4167C17.15 18.146 16.8576 18.8455 16.3372 19.3612C15.8168 19.8769 15.111 20.1667 14.375 20.1667H5.125C4.38902 20.1667 3.68319 19.8769 3.16278 19.3612C2.64237 18.8455 2.35 18.146 2.35 17.4167V11.9167C2.35 11.1873 2.64237 10.4878 3.16278 9.97212C3.68319 9.4564 4.38902 9.16667 5.125 9.16667H14.375C15.111 9.16667 15.8168 9.4564 16.3372 9.97212C16.8576 10.4878 17.15 11.1873 17.15 11.9167V17.4167Z" fill="#51666C"/>
<path d="M9.74922 12.8334C9.50389 12.8334 9.26862 12.93 9.09515 13.1019C8.92167 13.2738 8.82422 13.5069 8.82422 13.7501V15.5834C8.82422 15.8265 8.92167 16.0597 9.09515 16.2316C9.26862 16.4035 9.50389 16.5001 9.74922 16.5001C9.99454 16.5001 10.2298 16.4035 10.4033 16.2316C10.5768 16.0597 10.6742 15.8265 10.6742 15.5834V13.7501C10.6742 13.5069 10.5768 13.2738 10.4033 13.1019C10.2298 12.93 9.99454 12.8334 9.74922 12.8334Z" fill="#51666C"/>
</svg>
