<svg width="18" height="9" viewBox="0 0 18 9" fill="none" xmlns="http://www.w3.org/2000/svg">
<path d="M0.658092 2.999L3.56091 0.210923C3.63064 0.144089 3.7136 0.0910406 3.80501 0.0548394C3.89641 0.0186381 3.99445 0 4.09347 0C4.19249 0 4.29053 0.0186381 4.38193 0.0548394C4.47334 0.0910406 4.5563 0.144089 4.62603 0.210923C4.76573 0.344524 4.84415 0.525252 4.84415 0.713633C4.84415 0.902014 4.76573 1.08274 4.62603 1.21634L1.95574 3.77624H17.2499C17.4489 3.77624 17.6396 3.85137 17.7803 3.98509C17.921 4.11882 18 4.30019 18 4.4893C18 4.67842 17.921 4.85979 17.7803 4.99352C17.6396 5.12724 17.4489 5.20237 17.2499 5.20237H1.91073L4.62603 7.77653C4.69633 7.84282 4.75214 7.92168 4.79022 8.00857C4.8283 8.09547 4.8479 8.18867 4.8479 8.2828C4.8479 8.37694 4.8283 8.47014 4.79022 8.55703C4.75214 8.64392 4.69633 8.72279 4.62603 8.78908C4.5563 8.85591 4.47334 8.90896 4.38193 8.94516C4.29053 8.98136 4.19249 9 4.09347 9C3.99445 9 3.89641 8.98136 3.80501 8.94516C3.7136 8.90896 3.63064 8.85591 3.56091 8.78908L0.658092 6.02239C0.236694 5.62129 0 5.07758 0 4.5107C0 3.94381 0.236694 3.4001 0.658092 2.999Z" fill="white"/>
</svg>
