<svg width="18" height="18" viewBox="0 0 18 18" fill="none" xmlns="http://www.w3.org/2000/svg">
<path d="M5.24999 0H2.99999C2.20435 0 1.44129 0.31607 0.878678 0.878678C0.31607 1.44129 0 2.20435 0 2.99999L0 5.24999C0 6.04564 0.31607 6.8087 0.878678 7.37131C1.44129 7.93392 2.20435 8.24999 2.99999 8.24999H5.24999C6.04564 8.24999 6.8087 7.93392 7.37131 7.37131C7.93392 6.8087 8.24999 6.04564 8.24999 5.24999V2.99999C8.24999 2.20435 7.93392 1.44129 7.37131 0.878678C6.8087 0.31607 6.04564 0 5.24999 0ZM6.74999 5.24999C6.74999 5.64781 6.59195 6.02934 6.31065 6.31065C6.02934 6.59195 5.64781 6.74999 5.24999 6.74999H2.99999C2.60217 6.74999 2.22064 6.59195 1.93934 6.31065C1.65803 6.02934 1.5 5.64781 1.5 5.24999V2.99999C1.5 2.60217 1.65803 2.22064 1.93934 1.93934C2.22064 1.65803 2.60217 1.5 2.99999 1.5H5.24999C5.64781 1.5 6.02934 1.65803 6.31065 1.93934C6.59195 2.22064 6.74999 2.60217 6.74999 2.99999V5.24999Z" fill="#51666C"/>
<path d="M15 0H12.75C11.9543 0 11.1913 0.31607 10.6287 0.878678C10.0661 1.44129 9.75 2.20435 9.75 2.99999V5.24999C9.75 6.04564 10.0661 6.8087 10.6287 7.37131C11.1913 7.93392 11.9543 8.24999 12.75 8.24999H15C15.7956 8.24999 16.5587 7.93392 17.1213 7.37131C17.6839 6.8087 18 6.04564 18 5.24999V2.99999C18 2.20435 17.6839 1.44129 17.1213 0.878678C16.5587 0.31607 15.7956 0 15 0ZM16.5 5.24999C16.5 5.64781 16.342 6.02934 16.0606 6.31065C15.7793 6.59195 15.3978 6.74999 15 6.74999H12.75C12.3522 6.74999 11.9706 6.59195 11.6893 6.31065C11.408 6.02934 11.25 5.64781 11.25 5.24999V2.99999C11.25 2.60217 11.408 2.22064 11.6893 1.93934C11.9706 1.65803 12.3522 1.5 12.75 1.5H15C15.3978 1.5 15.7793 1.65803 16.0606 1.93934C16.342 2.22064 16.5 2.60217 16.5 2.99999V5.24999Z" fill="#51666C"/>
<path d="M5.24999 9.74994H2.99999C2.20435 9.74994 1.44129 10.066 0.878678 10.6286C0.31607 11.1912 0 11.9543 0 12.7499L0 14.9999C0 15.7956 0.31607 16.5586 0.878678 17.1212C1.44129 17.6839 2.20435 17.9999 2.99999 17.9999H5.24999C6.04564 17.9999 6.8087 17.6839 7.37131 17.1212C7.93392 16.5586 8.24999 15.7956 8.24999 14.9999V12.7499C8.24999 11.9543 7.93392 11.1912 7.37131 10.6286C6.8087 10.066 6.04564 9.74994 5.24999 9.74994ZM6.74999 14.9999C6.74999 15.3978 6.59195 15.7793 6.31065 16.0606C6.02934 16.3419 5.64781 16.4999 5.24999 16.4999H2.99999C2.60217 16.4999 2.22064 16.3419 1.93934 16.0606C1.65803 15.7793 1.5 15.3978 1.5 14.9999V12.7499C1.5 12.3521 1.65803 11.9706 1.93934 11.6893C2.22064 11.408 2.60217 11.2499 2.99999 11.2499H5.24999C5.64781 11.2499 6.02934 11.408 6.31065 11.6893C6.59195 11.9706 6.74999 12.3521 6.74999 12.7499V14.9999Z" fill="#51666C"/>
<path d="M15 9.74994H12.75C11.9543 9.74994 11.1913 10.066 10.6287 10.6286C10.0661 11.1912 9.75 11.9543 9.75 12.7499V14.9999C9.75 15.7956 10.0661 16.5586 10.6287 17.1212C11.1913 17.6839 11.9543 17.9999 12.75 17.9999H15C15.7956 17.9999 16.5587 17.6839 17.1213 17.1212C17.6839 16.5586 18 15.7956 18 14.9999V12.7499C18 11.9543 17.6839 11.1912 17.1213 10.6286C16.5587 10.066 15.7956 9.74994 15 9.74994ZM16.5 14.9999C16.5 15.3978 16.342 15.7793 16.0606 16.0606C15.7793 16.3419 15.3978 16.4999 15 16.4999H12.75C12.3522 16.4999 11.9706 16.3419 11.6893 16.0606C11.408 15.7793 11.25 15.3978 11.25 14.9999V12.7499C11.25 12.3521 11.408 11.9706 11.6893 11.6893C11.9706 11.408 12.3522 11.2499 12.75 11.2499H15C15.3978 11.2499 15.7793 11.408 16.0606 11.6893C16.342 11.9706 16.5 12.3521 16.5 12.7499V14.9999Z" fill="#51666C"/>
</svg>
