<svg width="15" height="18" viewBox="0 0 15 18" fill="none" xmlns="http://www.w3.org/2000/svg">
<path d="M11.4888 11.5372L6.59778 6.31899L4.65087 4.23887C4.93578 4.05659 6.00238 3.43113 7.5 3.43113C8.99762 3.43113 10.0642 4.05302 10.3491 4.23887L8.29264 6.43336L11.4194 9.77156L12.4202 8.70648C13.0156 8.07387 13.3444 7.24468 13.3444 6.38333V5.32897C13.3444 4.64989 13.1398 3.98869 12.7563 3.42398L11.2915 1.27238C10.7473 0.478928 9.8341 0 8.85882 0H6.08274C5.14034 0 4.25272 0.446761 3.70481 1.19732L2.30947 3.10946C1.88575 3.68846 1.65563 4.38898 1.65563 5.1038V5.86151C1.65563 6.6907 1.96246 7.49129 2.51768 8.11676L4.56321 10.4113L7.60593 13.8282L10.9591 17.5917C11.3244 18.0027 11.9381 18.1028 12.4202 17.8347L14.411 16.7232C15.0612 16.3586 15.2 15.4973 14.6922 14.9576L11.4888 11.5372ZM6.81329 14.6752L3.77056 11.2584L0.307775 14.9576C-0.199954 15.4973 -0.0611503 16.3586 0.589036 16.7232L2.60169 17.849C3.07654 18.1135 3.67194 18.0241 4.04087 17.631L6.81329 14.6788V14.6752Z" fill="#51666C"/>
</svg>
