<svg width="22" height="22" viewBox="0 0 22 22" fill="none" xmlns="http://www.w3.org/2000/svg">
<path d="M1.67788 1.66836L2.64038 0.834194C3.74954 -0.274972 5.54621 -0.274972 6.65538 0.834194C6.68288 0.861695 8.37871 3.07086 8.37871 3.07086C9.42371 4.17086 9.42371 5.90336 8.37871 6.9942L7.31538 8.33253C8.65371 11.3667 10.7345 13.4567 13.6679 14.7034L15.0062 13.6309C16.097 12.5767 17.8387 12.5767 18.9295 13.6309C18.9295 13.6309 21.1387 15.3267 21.1662 15.3542C22.2754 16.4634 22.2754 18.26 21.212 19.3234L20.2954 20.3775C19.2412 21.4317 17.8204 22.0092 16.2804 22.0092C9.27704 22.0092 0.000377655 12.7234 0.000377655 5.7292C0.000377655 4.19836 0.577877 2.76836 1.67788 1.67753V1.66836ZM16.2804 20.1667C17.3254 20.1667 18.2879 19.7817 18.9479 19.1125L19.8645 18.0584C20.2404 17.6825 20.2587 17.0684 19.9012 16.6742C19.9012 16.6742 17.7104 14.9875 17.6829 14.96C17.307 14.5842 16.647 14.5842 16.262 14.96C16.2345 14.9875 14.392 16.4634 14.392 16.4634C14.1354 16.665 13.7962 16.72 13.4937 16.6009C9.69871 15.1525 6.97621 12.4392 5.40871 8.52503C5.28954 8.22253 5.33538 7.8742 5.54621 7.60836C5.54621 7.60836 7.02204 5.7567 7.04038 5.73836C7.43454 5.3442 7.43454 4.7117 7.04038 4.31753C7.01288 4.29003 5.32621 2.09919 5.32621 2.09919C4.93204 1.74169 4.31788 1.75086 3.89621 2.17253L2.93371 3.00669C2.22788 3.71253 1.83371 4.67503 1.83371 5.72003C1.83371 12.1 10.7895 20.1667 16.2804 20.1667Z" fill="#012935"/>
</svg>
