<svg width="11" height="14" viewBox="0 0 11 14" fill="none" xmlns="http://www.w3.org/2000/svg">
<path d="M9.85022 4.6447L4.47911 0.563621C4.0596 0.245307 3.56321 0.0535813 3.04498 0.00969572C2.52674 -0.0341898 2.0069 0.071479 1.54308 0.31499C1.07925 0.5585 0.689556 0.93034 0.417192 1.38929C0.144827 1.84825 0.000428624 2.37639 3.39784e-06 2.91517V11.0814C-0.000805531 11.6207 0.142837 12.1497 0.414943 12.6094C0.687049 13.0692 1.07694 13.4416 1.54122 13.6854C2.0055 13.9291 2.52595 14.0346 3.04465 13.99C3.56334 13.9455 4.05992 13.7526 4.47911 13.433L9.85022 9.35189C10.2066 9.08087 10.4964 8.72672 10.6962 8.31808C10.8959 7.90945 11 7.45782 11 6.99975C11 6.54169 10.8959 6.09006 10.6962 5.68142C10.4964 5.27279 10.2066 4.91863 9.85022 4.64762V4.6447Z" fill="#FF7510"/>
</svg>
