<svg width="38" height="34" viewBox="0 0 38 34" fill="none" xmlns="http://www.w3.org/2000/svg">
<path d="M34.9235 6.56495L23.2483 1.14155C20.6783 -0.355269 17.4796 -0.381827 14.8838 1.07208L3.07721 6.56495C3.0329 6.58659 2.98696 6.60975 2.94421 6.63442C0.142378 8.19652 -0.830308 11.6775 0.771737 14.4095C1.31478 15.3356 2.11358 16.0945 3.07721 16.5997L6.33407 18.1127V25.6773C6.336 29.0599 8.5933 32.0484 11.9057 33.0537C14.2108 33.7039 16.6009 34.0222 19.0004 33.9985C21.3996 34.0247 23.7897 33.709 26.0952 33.0614C29.4076 32.0562 31.6649 29.0677 31.6668 25.6851V18.1096L34.8334 16.6337V29.367C34.8334 30.2196 35.5423 30.9108 36.4167 30.9108C37.2911 30.9108 37.9999 30.2196 37.9999 29.367V10.8413C38.0105 9.02844 36.5425 7.35374 34.9235 6.56495ZM28.5001 25.6851C28.5009 27.7084 27.1546 29.498 25.1752 30.105C23.1679 30.6642 21.0879 30.9357 19.0004 30.9109C16.9129 30.9357 14.8328 30.6642 12.8255 30.105C10.8461 29.498 9.49979 27.7084 9.5006 25.6851V19.584L14.7524 22.0232C16.0482 22.7735 17.5282 23.1678 19.0352 23.1641C20.4697 23.174 21.8801 22.8037 23.1154 22.0927L28.5001 19.5839V25.6851ZM33.5667 13.8131L21.6255 19.3709C19.9605 20.3162 17.8968 20.2894 16.2581 19.3014L4.57498 13.8826C3.2727 13.1979 2.78628 11.6134 3.48852 10.3437C3.72601 9.91427 4.08211 9.5583 4.51642 9.31602L16.3832 3.78921C18.0487 2.84599 20.1113 2.87269 21.7505 3.85868L33.4257 9.28208C34.2844 9.74696 34.8215 10.6248 34.8333 11.5824C34.8348 12.4894 34.3558 13.3329 33.5667 13.8131Z" fill="#FF7510"/>
</svg>
