<svg width="32" height="32" viewBox="0 0 32 32" fill="none" xmlns="http://www.w3.org/2000/svg">
<path d="M30.6667 29.3333H6.66667C5.6058 29.3333 4.58839 28.9119 3.83824 28.1618C3.08809 27.4116 2.66667 26.3942 2.66667 25.3333V1.33333C2.66667 0.979711 2.52619 0.640573 2.27614 0.390524C2.02609 0.140476 1.68696 0 1.33333 0C0.979711 0 0.640573 0.140476 0.390524 0.390524C0.140476 0.640573 0 0.979711 0 1.33333L0 25.3333C0.00211714 27.1008 0.705176 28.7953 1.95496 30.045C3.20474 31.2948 4.89921 31.9979 6.66667 32H30.6667C31.0203 32 31.3594 31.8595 31.6095 31.6095C31.8595 31.3594 32 31.0203 32 30.6667C32 30.313 31.8595 29.9739 31.6095 29.7239C31.3594 29.4738 31.0203 29.3333 30.6667 29.3333Z" fill="#FF7510"/>
<path d="M8.0013 26.6666C8.35492 26.6666 8.69406 26.5262 8.94411 26.2761C9.19416 26.0261 9.33464 25.6869 9.33464 25.3333V16C9.33464 15.6463 9.19416 15.3072 8.94411 15.0572C8.69406 14.8071 8.35492 14.6666 8.0013 14.6666C7.64768 14.6666 7.30854 14.8071 7.05849 15.0572C6.80844 15.3072 6.66797 15.6463 6.66797 16V25.3333C6.66797 25.6869 6.80844 26.0261 7.05849 26.2761C7.30854 26.5262 7.64768 26.6666 8.0013 26.6666Z" fill="#FF7510"/>
<path d="M13.332 13.3333V25.3333C13.332 25.687 13.4725 26.0261 13.7226 26.2761C13.9726 26.5262 14.3117 26.6667 14.6654 26.6667C15.019 26.6667 15.3581 26.5262 15.6082 26.2761C15.8582 26.0261 15.9987 25.687 15.9987 25.3333V13.3333C15.9987 12.9797 15.8582 12.6406 15.6082 12.3905C15.3581 12.1405 15.019 12 14.6654 12C14.3117 12 13.9726 12.1405 13.7226 12.3905C13.4725 12.6406 13.332 12.9797 13.332 13.3333Z" fill="#FF7510"/>
<path d="M20 17.3333V25.3333C20 25.687 20.1405 26.0261 20.3905 26.2761C20.6406 26.5262 20.9797 26.6667 21.3333 26.6667C21.687 26.6667 22.0261 26.5262 22.2761 26.2761C22.5262 26.0261 22.6667 25.687 22.6667 25.3333V17.3333C22.6667 16.9797 22.5262 16.6406 22.2761 16.3905C22.0261 16.1405 21.687 16 21.3333 16C20.9797 16 20.6406 16.1405 20.3905 16.3905C20.1405 16.6406 20 16.9797 20 17.3333Z" fill="#FF7510"/>
<path d="M26.668 12V25.3333C26.668 25.6869 26.8084 26.0261 27.0585 26.2761C27.3085 26.5262 27.6477 26.6666 28.0013 26.6666C28.3549 26.6666 28.6941 26.5262 28.9441 26.2761C29.1942 26.0261 29.3346 25.6869 29.3346 25.3333V12C29.3346 11.6463 29.1942 11.3072 28.9441 11.0572C28.6941 10.8071 28.3549 10.6666 28.0013 10.6666C27.6477 10.6666 27.3085 10.8071 27.0585 11.0572C26.8084 11.3072 26.668 11.6463 26.668 12Z" fill="#FF7510"/>
<path d="M8.00102 12.0001C8.35461 12 8.69369 11.8595 8.94368 11.6094L13.725 6.8281C13.9792 6.586 14.3167 6.45095 14.6677 6.45095C15.0187 6.45095 15.3562 6.586 15.6104 6.8281L18.5064 9.7241C19.2565 10.474 20.2737 10.8952 21.3344 10.8952C22.395 10.8952 23.4122 10.474 24.1624 9.7241L31.6104 2.2761C31.8532 2.02463 31.9876 1.68782 31.9846 1.33823C31.9815 0.988631 31.8413 0.654215 31.5941 0.407004C31.3469 0.159793 31.0125 0.0195678 30.6629 0.0165299C30.3133 0.013492 29.9765 0.147885 29.725 0.390762L22.277 7.83743C22.027 8.08739 21.6879 8.22781 21.3344 8.22781C20.9808 8.22781 20.6417 8.08739 20.3917 7.83743L17.4957 4.94276C16.7456 4.19288 15.7283 3.77162 14.6677 3.77162C13.607 3.77162 12.5898 4.19288 11.8397 4.94276L7.05835 9.7241C6.87194 9.91057 6.745 10.1481 6.69357 10.4067C6.64215 10.6653 6.66855 10.9334 6.76945 11.177C6.87034 11.4206 7.04119 11.6288 7.26041 11.7753C7.47962 11.9218 7.73735 12 8.00102 12.0001Z" fill="#FF7510"/>
</svg>
