<svg width="32" height="33" viewBox="0 0 32 33" fill="none" xmlns="http://www.w3.org/2000/svg">
<path d="M15.819 6.33464C10.2403 6.42664 5.54029 11.036 5.34162 16.608C5.22429 19.8453 6.56029 22.9186 9.00829 25.0426C10.063 25.9586 10.667 27.3666 10.667 29C10.667 31.2053 12.4616 33 14.667 33H17.3336C19.539 33 21.3336 31.2053 21.3336 29V28.5C21.3336 27.212 21.9403 25.9693 23.043 24.9986C25.347 22.9746 26.667 20.06 26.667 17C26.667 14.1186 25.535 11.4173 23.4803 9.39597C21.4256 7.37464 18.703 6.2693 15.819 6.33464ZM18.667 29C18.667 29.736 18.0696 30.3333 17.3336 30.3333H14.667C13.931 30.3333 13.3336 29.736 13.3336 28.908C13.3336 28.4866 13.2923 28.0733 13.231 27.6666H18.7216C18.6883 27.9413 18.667 28.22 18.667 28.5V29ZM21.283 22.996C20.6016 23.5946 20.0523 24.272 19.6296 25H17.3336V19.4213C18.8816 18.8693 20.0003 17.4026 20.0003 15.6666C20.0003 14.9293 19.4043 14.3333 18.667 14.3333C17.9296 14.3333 17.3336 14.9293 17.3336 15.6666C17.3336 16.404 16.7363 17 16.0003 17C15.2643 17 14.667 16.4026 14.667 15.6666C14.667 14.9306 14.071 14.3333 13.3336 14.3333C12.5963 14.3333 12.0003 14.9293 12.0003 15.6666C12.0003 17.4026 13.119 18.8693 14.667 19.4213V25H12.339C11.9256 24.256 11.3963 23.5866 10.755 23.0293C8.92029 21.436 7.91762 19.1306 8.00562 16.704C8.15496 12.5253 11.6803 9.0693 15.8643 9.0013C15.9096 9.0013 15.9536 9.0013 16.0003 9.0013C18.115 9.0013 20.103 9.8133 21.611 11.2986C23.1523 12.8146 24.0016 14.84 24.0016 17.0013C24.0016 19.2946 23.011 21.4786 21.2843 22.9973L21.283 22.996ZM22.3803 4.29864L24.027 1.61864C24.411 0.989303 25.2323 0.793303 25.8603 1.1813C26.4883 1.56664 26.6843 2.38664 26.2976 3.01464L24.651 5.69464C24.4003 6.1053 23.9616 6.33064 23.5136 6.33064C23.275 6.33064 23.035 6.26664 22.8176 6.1333C22.1896 5.74797 21.9936 4.92664 22.3803 4.29864ZM31.2176 9.8293L28.6403 10.992C28.463 11.0733 28.2763 11.1106 28.0936 11.1106C27.5843 11.1106 27.1003 10.8186 26.8776 10.3253C26.5736 9.65464 26.8723 8.86397 27.5443 8.56264L30.1216 7.39997C30.7963 7.09464 31.583 7.39597 31.8843 8.06664C32.1883 8.7373 31.8896 9.52797 31.2176 9.8293ZM5.59229 3.0133C5.20696 2.3853 5.40429 1.56397 6.03229 1.17997C6.66296 0.79597 7.48162 0.993303 7.86562 1.61997L9.50829 4.3013C9.89362 4.9293 9.69629 5.75064 9.06829 6.13464C8.85096 6.26797 8.60962 6.33064 8.37362 6.33064C7.92429 6.33064 7.48696 6.10397 7.23496 5.6933L5.59229 3.01197V3.0133ZM4.94829 10.4146C4.72029 10.8933 4.24296 11.172 3.74562 11.172C3.55229 11.172 3.35629 11.1306 3.17096 11.04L0.773623 9.89197C0.109623 9.57464 -0.171711 8.77864 0.146956 8.11464C0.462956 7.4493 1.26296 7.1653 1.92429 7.48797L4.32162 8.63597C4.98562 8.9533 5.26696 9.75064 4.94829 10.4146Z" fill="#FF7510"/>
</svg>
