<svg width="44" height="32" viewBox="0 0 44 32" fill="none" xmlns="http://www.w3.org/2000/svg">
<path d="M44 19.5312C44 26.0059 38.7259 31.25 32.2143 31.25H31.4286C29.6902 31.25 28.2857 29.8535 28.2857 28.125C28.2857 26.3965 29.6902 25 31.4286 25H32.2143C35.2491 25 37.7143 22.5488 37.7143 19.5312V18.75H31.4286C27.9616 18.75 25.1429 15.9473 25.1429 12.5V6.25C25.1429 2.80273 27.9616 0 31.4286 0H37.7143C41.1812 0 44 2.80273 44 6.25V9.375V12.5V19.5312ZM18.8571 19.5312C18.8571 26.0059 13.583 31.25 7.07143 31.25H6.28571C4.54732 31.25 3.14286 29.8535 3.14286 28.125C3.14286 26.3965 4.54732 25 6.28571 25H7.07143C10.1062 25 12.5714 22.5488 12.5714 19.5312V18.75H6.28571C2.81875 18.75 0 15.9473 0 12.5V6.25C0 2.80273 2.81875 0 6.28571 0H12.5714C16.0384 0 18.8571 2.80273 18.8571 6.25V9.375V12.5V19.5312Z" fill="#F6F6F6"/>
</svg>
