<svg width="50" height="34" viewBox="0 0 50 34" fill="none" xmlns="http://www.w3.org/2000/svg">
<path d="M0 12.75C0 5.70563 5.9933 0 13.3929 0H14.2857C16.2612 0 17.8571 1.51937 17.8571 3.4C17.8571 5.28063 16.2612 6.8 14.2857 6.8H13.3929C9.9442 6.8 7.14286 9.46688 7.14286 12.75V13.6H14.2857C18.2254 13.6 21.4286 16.6494 21.4286 20.4V27.2C21.4286 30.9506 18.2254 34 14.2857 34H7.14286C3.20312 34 0 30.9506 0 27.2V23.8V20.4V12.75ZM28.5714 12.75C28.5714 5.70563 34.5647 0 41.9643 0H42.8571C44.8326 0 46.4286 1.51937 46.4286 3.4C46.4286 5.28063 44.8326 6.8 42.8571 6.8H41.9643C38.5156 6.8 35.7143 9.46688 35.7143 12.75V13.6H42.8571C46.7969 13.6 50 16.6494 50 20.4V27.2C50 30.9506 46.7969 34 42.8571 34H35.7143C31.7746 34 28.5714 30.9506 28.5714 27.2V23.8V20.4V12.75Z" fill="#012935"/>
</svg>
