<svg width="28" height="28" viewBox="0 0 28 28" fill="none" xmlns="http://www.w3.org/2000/svg">
<path d="M23.2167 3.6086C23.0732 2.99226 22.8059 2.41153 22.431 1.90173C22.056 1.39193 21.5813 0.963717 21.0356 0.643126C20.49 0.322536 19.8848 0.11627 19.257 0.0368736C18.6291 -0.0425234 17.9916 0.00660759 17.3833 0.181279L15.372 0.756388C14.8625 0.902813 14.3932 1.16377 14 1.51931C13.6068 1.16377 13.1375 0.902813 12.628 0.756388L10.6167 0.181279C10.0088 0.00751797 9.37187 -0.0409126 8.74468 0.0389266C8.11748 0.118766 7.51305 0.325209 6.96807 0.645727C6.42309 0.966244 5.94894 1.39415 5.57438 1.90347C5.19982 2.41279 4.93268 2.99291 4.78917 3.6086C3.44726 3.85272 2.23334 4.55929 1.35839 5.6055C0.48344 6.65171 0.00279532 7.97141 0 9.3352L0 17.501C0.0018525 19.0474 0.617029 20.5299 1.71059 21.6234C2.80415 22.7168 4.28681 23.3319 5.83333 23.3338H12.8333V25.6669H9.33333C9.02391 25.6669 8.72717 25.7898 8.50838 26.0086C8.28958 26.2273 8.16667 26.5241 8.16667 26.8335C8.16667 27.1428 8.28958 27.4396 8.50838 27.6583C8.72717 27.8771 9.02391 28 9.33333 28H18.6667C18.9761 28 19.2728 27.8771 19.4916 27.6583C19.7104 27.4396 19.8333 27.1428 19.8333 26.8335C19.8333 26.5241 19.7104 26.2273 19.4916 26.0086C19.2728 25.7898 18.9761 25.6669 18.6667 25.6669H15.1667V23.3338H22.1667C23.7132 23.3319 25.1959 22.7168 26.2894 21.6234C27.383 20.5299 27.9981 19.0474 28 17.501V9.3352C27.9975 7.97224 27.5176 6.65321 26.6439 5.60712C25.7701 4.56103 24.5575 3.85393 23.2167 3.6086ZM15.1667 4.12188C15.1668 3.86853 15.2494 3.6221 15.402 3.41984C15.5546 3.21758 15.7689 3.0705 16.0125 3.00083L18.025 2.42572C18.3723 2.32639 18.7379 2.30905 19.0931 2.37505C19.4482 2.44106 19.7832 2.5886 20.0716 2.80607C20.36 3.02355 20.594 3.305 20.7551 3.62828C20.9162 3.95155 21 4.30781 21 4.669V9.26287C20.9984 9.7691 20.8326 10.2612 20.5276 10.6652C20.2226 11.0693 19.7948 11.3635 19.3083 11.5038L15.1667 12.6867V4.12188ZM7.93333 2.80252C8.22118 2.58583 8.55545 2.43901 8.90977 2.37362C9.26409 2.30822 9.62876 2.32606 9.975 2.42572L11.9875 3.00083C12.2311 3.0705 12.4454 3.21758 12.598 3.41984C12.7506 3.6221 12.8332 3.86853 12.8333 4.12188V12.6867L8.69167 11.5038C8.20522 11.3635 7.77739 11.0693 7.47238 10.6652C7.16737 10.2612 7.00162 9.7691 7 9.26287V4.669C6.99881 4.30659 7.08263 3.94895 7.24472 3.6248C7.40681 3.30064 7.64266 3.01901 7.93333 2.80252ZM25.6667 17.501C25.6667 18.4292 25.2979 19.3194 24.6415 19.9757C23.9852 20.632 23.0949 21.0007 22.1667 21.0007H5.83333C4.90508 21.0007 4.01484 20.632 3.35846 19.9757C2.70208 19.3194 2.33333 18.4292 2.33333 17.501V9.3352C2.33632 8.61397 2.5621 7.91127 2.97977 7.32325C3.39744 6.73523 3.98661 6.2906 4.66667 6.05019V9.26287C4.66952 10.2758 5.00082 11.2606 5.61085 12.0693C6.22087 12.878 7.07673 13.4671 8.05 13.7483L12.0762 14.8996C13.3344 15.2583 14.6679 15.2583 15.9262 14.8996L19.9523 13.7483C20.9252 13.4667 21.7805 12.8774 22.3901 12.0687C22.9997 11.26 23.3306 10.2755 23.3333 9.26287V6.05019C24.0134 6.2906 24.6026 6.73523 25.0202 7.32325C25.4379 7.91127 25.6637 8.61397 25.6667 9.3352V17.501Z" fill="#012935"/>
</svg>
