<svg width="28" height="26" viewBox="0 0 28 26" fill="none" xmlns="http://www.w3.org/2000/svg">
<path d="M25.7331 5.02026L17.1303 0.872951C15.2367 -0.271676 12.8797 -0.291985 10.967 0.819826L2.26742 5.02026C2.23477 5.0368 2.20092 5.05451 2.16942 5.07338C0.10491 6.26793 -0.611806 8.92989 0.568648 11.019C0.968787 11.7273 1.55737 12.3075 2.26742 12.6939L4.66721 13.8509V19.6356C4.66863 22.2223 6.33191 24.5076 8.7726 25.2763C10.4711 25.7736 12.2323 26.017 14.0003 25.9988C15.7681 26.0189 17.5293 25.7775 19.228 25.2823C21.6687 24.5136 23.332 22.2282 23.3334 19.6415V13.8485L25.6667 12.7199V22.4571C25.6667 23.1091 26.189 23.6377 26.8333 23.6377C27.4777 23.6377 28 23.1091 28 22.4571V8.29039C28.0077 6.9041 26.926 5.62345 25.7331 5.02026ZM21.0001 19.6415C21.0007 21.1887 20.0087 22.5573 18.5501 23.0215C17.0711 23.4491 15.5384 23.6567 14.0003 23.6377C12.4621 23.6567 10.9294 23.4491 9.45038 23.0215C7.99185 22.5573 6.99984 21.1887 7.00044 19.6415V14.976L10.8702 16.8413C11.825 17.415 12.9155 17.7165 14.026 17.7137C15.0829 17.7213 16.1221 17.4381 17.0324 16.8944L21.0001 14.9759V19.6415ZM24.7333 10.563L15.9346 14.813C14.7077 15.5359 13.1871 15.5154 11.9797 14.7599L3.37104 10.6161C2.41146 10.0925 2.05305 8.88086 2.57049 7.90988C2.74548 7.5815 3.00787 7.30929 3.32789 7.12402L12.0718 2.89763C13.299 2.17634 14.8189 2.19676 16.0267 2.95076L24.6295 7.09806C25.2622 7.45356 25.658 8.12487 25.6666 8.85712C25.6678 9.55073 25.3148 10.1958 24.7333 10.563Z" fill="#012935"/>
</svg>
