<svg width="112" height="85" viewBox="0 0 112 85" fill="none" xmlns="http://www.w3.org/2000/svg">
<path d="M15.2249 62.1854C19.1532 63.19 23.1826 64.0222 27.1851 64.5679C31.1928 65.1297 35.1983 65.4965 39.1839 65.5835C47.1523 65.7819 55.0328 64.8804 62.4975 62.6682L65.2656 61.7519L65.9584 61.523L66.6327 61.249L67.9828 60.7024L69.3407 60.1711L70.6583 59.5484L71.9777 58.9282C72.4205 58.727 72.8591 58.5154 73.2808 58.2728C76.7637 56.5195 79.9867 54.2924 83.1562 51.9517C89.3702 47.0865 94.8712 41.1651 99.9936 34.6823L99.9978 34.677C100.368 34.2082 101.048 34.1301 101.516 34.5021C101.908 34.8132 102.027 35.3414 101.839 35.7798C98.5086 43.5543 93.5295 50.7383 87.2139 56.7302C86.4236 57.4765 85.5719 58.1571 84.7496 58.8744L83.4952 59.9261C83.0624 60.2588 82.6145 60.5718 82.1739 60.8952C81.2841 61.5311 80.4133 62.1981 79.4929 62.7908L76.6829 64.5027C76.4466 64.6421 76.2172 64.7939 75.9758 64.9241L75.2423 65.2969L73.7729 66.0414L72.3017 66.7835L70.7858 67.4299L69.2621 68.0581L68.5004 68.3712L67.7217 68.6377C66.6817 68.9876 65.6457 69.353 64.599 69.6854C56.1635 72.1553 47.2866 72.7168 38.7452 71.6707C34.4707 71.142 30.2669 70.2344 26.1938 68.9638C24.1654 68.2974 22.1509 67.6136 20.1948 66.7674C18.23 65.9279 16.3261 65.0432 14.4546 63.9217C14.0011 63.6502 13.853 63.0617 14.1229 62.6075C14.3447 62.2348 14.7784 62.069 15.1769 62.1704L15.2249 62.1854Z" fill="#51666C"/>
<path d="M105.111 40.9217C104.323 41.1762 103.437 40.8595 103 40.1135C100.409 35.6972 96.281 35.3159 96.1058 35.3017C95.1171 35.2219 94.3689 34.3571 94.4387 33.3656C94.5093 32.3738 95.356 31.626 96.3463 31.6895C96.5968 31.706 102.519 32.1587 106.111 38.2818C106.617 39.1442 106.33 40.2539 105.471 40.759C105.356 40.8277 105.235 40.8815 105.111 40.9217Z" fill="#51666C"/>
<path d="M14.7667 70.1235C14.6433 70.1634 14.5129 70.1908 14.3797 70.2034C13.387 70.296 12.5054 69.5648 12.4111 68.5693C11.7398 61.502 16.2763 57.6689 16.4697 57.509C17.2402 56.8743 18.3774 56.9858 19.0113 57.7578C19.6443 58.527 19.5385 59.6619 18.7775 60.2985C18.6238 60.4298 15.5243 63.1541 16.0061 68.2336C16.0871 69.0937 15.5533 69.8693 14.7667 70.1235Z" fill="#51666C"/>
<path d="M34.8302 39.3548C38.3904 38.204 39.9466 33.1568 38.3061 28.0815C36.6656 23.0062 32.4496 19.8247 28.8894 20.9754C25.3292 22.1262 23.773 27.1734 25.4135 32.2488C27.054 37.3241 31.27 40.5056 34.8302 39.3548Z" fill="#51666C"/>
<path d="M72.8804 21.0858C72.6256 21.1681 72.3488 21.1946 72.0667 21.153C66.9328 20.4014 64.0579 23.4899 64.0299 23.5216C63.3586 24.2599 62.2162 24.3114 61.4794 23.6367C60.7417 22.9623 60.6882 21.8169 61.3598 21.0794C61.5281 20.8932 65.5753 16.5444 72.5826 17.5709C73.5696 17.7152 74.2543 18.635 74.1122 19.6243C74.0099 20.3302 73.5143 20.8809 72.8804 21.0858Z" fill="#51666C"/>
</svg>
