<svg width="130" height="130" viewBox="0 0 130 130" fill="none" xmlns="http://www.w3.org/2000/svg">
<mask id="mask0_366_586" style="mask-type:luminance" maskUnits="userSpaceOnUse" x="0" y="0" width="130" height="130">
<path d="M64.8899 -4.57764e-05C100.728 -4.57764e-05 129.78 29.0522 129.78 64.8899C129.78 100.728 100.728 129.78 64.8899 129.78C29.0522 129.78 0 100.728 0 64.8899C0 29.0522 29.0522 -4.57764e-05 64.8899 -4.57764e-05Z" fill="white"/>
</mask>
<g mask="url(#mask0_366_586)">
<path d="M130.709 104.679L-1.76892 26.5275L-0.92368 25.0947L131.555 103.247L130.709 104.679Z" fill="#51666C"/>
<path d="M126.994 110.994L-5.48474 32.8271L-4.63933 31.3943L127.839 109.562L126.994 110.994Z" fill="#51666C"/>
<path d="M123.271 117.302L-9.20715 39.135L-8.36174 37.7022L124.117 115.869L123.271 117.302Z" fill="#51666C"/>
<path d="M115.834 129.913L-16.6443 51.7456L-15.7989 50.3128L116.679 128.48L115.834 129.913Z" fill="#51666C"/>
<path d="M119.546 123.594L-12.9323 45.442L-12.087 44.0092L120.391 122.161L119.546 123.594Z" fill="#51666C"/>
<path d="M112.112 136.223L-20.366 58.0553L-19.5206 56.6225L112.958 134.79L112.112 136.223Z" fill="#51666C"/>
<path d="M108.388 142.513L-24.0901 64.3611L-23.2448 62.9283L109.233 141.08L108.388 142.513Z" fill="#51666C"/>
<path d="M104.665 148.815L-27.8134 70.6627L-26.9681 69.2299L105.51 147.382L104.665 148.815Z" fill="#51666C"/>
<path d="M100.948 155.137L-31.5305 76.9694L-30.6851 75.5366L101.793 153.704L100.948 155.137Z" fill="#51666C"/>
<path d="M164.187 47.922L31.7084 -30.2299L32.5536 -31.6627L165.032 46.4892L164.187 47.922Z" fill="#51666C"/>
<path d="M160.478 54.2465L27.9995 -23.9208L28.8449 -25.3536L161.323 52.8137L160.478 54.2465Z" fill="#51666C"/>
<path d="M153.03 66.8442L20.5516 -11.3077L21.3969 -12.7405L153.875 65.4114L153.03 66.8442Z" fill="#51666C"/>
<path d="M156.76 60.5541L24.2815 -17.6132L25.1269 -19.046L157.605 59.1213L156.76 60.5541Z" fill="#51666C"/>
<path d="M149.322 73.1631L16.844 -5.00415L17.6894 -6.43696L150.168 71.7303L149.322 73.1631Z" fill="#51666C"/>
<path d="M145.595 79.4671L13.1165 1.2998L13.9619 -0.133003L146.44 78.0343L145.595 79.4671Z" fill="#51666C"/>
<path d="M141.866 85.7569L9.3877 7.60498L10.2329 6.17217L142.711 84.3241L141.866 85.7569Z" fill="#51666C"/>
<path d="M138.148 92.0641L5.67017 13.9122L6.51541 12.4794L138.994 90.6313L138.148 92.0641Z" fill="#51666C"/>
<path d="M134.436 98.3877L1.95764 20.2205L2.80305 18.7877L135.281 96.9549L134.436 98.3877Z" fill="#51666C"/>
</g>
</svg>
