<svg width="29" height="28" viewBox="0 0 29 28" fill="none" xmlns="http://www.w3.org/2000/svg">
<path d="M23.5549 17.1115C22.6728 17.1122 21.8041 17.3275 21.0238 17.7389C20.2435 18.1503 19.575 18.7454 19.0761 19.4728L11.4822 16.044C12.0216 14.7416 12.0237 13.2786 11.4881 11.9747L19.0714 8.52832C19.8109 9.59787 20.9093 10.3669 22.1672 10.696C23.4252 11.0251 24.7595 10.8925 25.928 10.3221C27.0966 9.75168 28.022 8.78136 28.5364 7.58713C29.0508 6.39289 29.1201 5.05383 28.7318 3.81285C28.3435 2.57187 27.5233 1.51116 26.4199 0.823131C25.3165 0.1351 24.0031 -0.134682 22.7179 0.0627223C21.4326 0.260127 20.2607 0.911641 19.4147 1.89909C18.5686 2.88653 18.1045 4.1445 18.1066 5.44482C18.1115 5.75258 18.1427 6.05937 18.1999 6.36182L10.1382 10.0252C9.36395 9.29974 8.39464 8.81629 7.34939 8.63421C6.30413 8.45212 5.22845 8.57932 4.25449 9.00018C3.28054 9.42105 2.45073 10.1172 1.86701 11.0032C1.2833 11.8892 0.971094 12.9264 0.968763 13.9874C0.966432 15.0484 1.27407 16.087 1.85389 16.9756C2.43371 17.8641 3.26045 18.5639 4.23255 18.9891C5.20464 19.4142 6.27976 19.5462 7.3258 19.3687C8.37185 19.1912 9.34327 18.712 10.1207 17.99L18.2034 21.6393C18.1472 21.9415 18.1164 22.2478 18.1112 22.5552C18.111 23.6321 18.4302 24.685 19.0284 25.5806C19.6265 26.4762 20.4769 27.1742 21.4719 27.5865C22.4668 27.9987 23.5617 28.1066 24.618 27.8966C25.6743 27.6865 26.6446 27.1679 27.4061 26.4064C28.1677 25.6449 28.6863 24.6746 28.8963 23.6183C29.1064 22.562 28.9984 21.4671 28.5862 20.4721C28.1739 19.4772 27.4759 18.6268 26.5803 18.0286C25.6847 17.4304 24.6319 17.1113 23.5549 17.1115ZM23.5549 2.33332C24.1703 2.33309 24.772 2.51538 25.2839 2.85713C25.7957 3.19889 26.1947 3.68476 26.4304 4.25329C26.666 4.82182 26.7278 5.44748 26.6079 6.05113C26.488 6.65477 26.1917 7.2093 25.7566 7.64457C25.3215 8.07983 24.7671 8.37629 24.1635 8.49645C23.5599 8.6166 22.9342 8.55505 22.3656 8.31958C21.797 8.08411 21.311 7.6853 20.969 7.1736C20.6271 6.66189 20.4446 6.06026 20.4446 5.44482C20.4452 4.61999 20.773 3.8291 21.3562 3.24575C21.9393 2.6624 22.7301 2.33424 23.5549 2.33332ZM6.44455 17.1115C5.8291 17.1117 5.22741 16.9294 4.71558 16.5877C4.20374 16.2459 3.80475 15.76 3.56907 15.1915C3.33339 14.623 3.2716 13.9973 3.39153 13.3937C3.51146 12.79 3.8077 12.2355 4.24281 11.8002C4.67791 11.365 5.23233 11.0685 5.83593 10.9484C6.43954 10.8282 7.06521 10.8898 7.63383 11.1252C8.20245 11.3607 8.68847 11.7595 9.03042 12.2712C9.37237 12.7829 9.55488 13.3845 9.55488 14C9.55396 14.8247 9.226 15.6154 8.64294 16.1987C8.05987 16.782 7.26929 17.1102 6.44455 17.1115ZM23.5549 25.6667C22.9395 25.6667 22.3379 25.4842 21.8262 25.1423C21.3145 24.8004 20.9157 24.3144 20.6802 23.7459C20.4447 23.1773 20.3831 22.5517 20.5032 21.9481C20.6232 21.3446 20.9196 20.7901 21.3547 20.355C21.7899 19.9198 22.3443 19.6235 22.9479 19.5034C23.5514 19.3834 24.1771 19.445 24.7456 19.6805C25.3142 19.916 25.8001 20.3148 26.142 20.8265C26.4839 21.3382 26.6664 21.9398 26.6664 22.5552C26.6658 23.3802 26.3378 24.1712 25.7544 24.7546C25.171 25.338 24.3799 25.666 23.5549 25.6667Z" fill="#012935"/>
</svg>
