<svg width="11" height="14" viewBox="0 0 11 14" fill="none" xmlns="http://www.w3.org/2000/svg">
<path d="M5.4987 7C6.2239 7 6.93281 6.79473 7.53579 6.41014C8.13877 6.02556 8.60874 5.47893 8.88626 4.83939C9.16378 4.19985 9.23639 3.49612 9.09491 2.81719C8.95343 2.13825 8.60422 1.51461 8.09142 1.02513C7.57863 0.535644 6.92529 0.202301 6.21403 0.0672531C5.50277 -0.0677952 4.76552 0.0015165 4.09553 0.266423C3.42553 0.53133 2.85287 0.979934 2.44998 1.55551C2.04708 2.13108 1.83203 2.80777 1.83203 3.5C1.833 4.42797 2.21962 5.31768 2.90705 5.97385C3.59447 6.63003 4.52654 6.99907 5.4987 7ZM5.4987 1.16667C5.98216 1.16667 6.45477 1.30352 6.85676 1.55991C7.25875 1.8163 7.57206 2.18071 7.75707 2.60707C7.94208 3.03343 7.99049 3.50259 7.89617 3.95521C7.80185 4.40783 7.56904 4.8236 7.22718 5.14992C6.88532 5.47624 6.44976 5.69847 5.97559 5.7885C5.50141 5.87853 5.00991 5.83232 4.56325 5.65572C4.11659 5.47912 3.73482 5.18005 3.46622 4.79633C3.19762 4.41262 3.05425 3.96149 3.05425 3.5C3.05425 2.88116 3.31179 2.28767 3.77021 1.85009C4.22864 1.4125 4.85039 1.16667 5.4987 1.16667Z" fill="#FF7510"/>
<path d="M5.5 8.16669C4.04181 8.16823 2.6438 8.72185 1.6127 9.70608C0.5816 10.6903 0.00161752 12.0248 0 13.4167C0 13.5714 0.0643847 13.7198 0.17899 13.8292C0.293596 13.9386 0.449034 14 0.611111 14C0.773188 14 0.928626 13.9386 1.04323 13.8292C1.15784 13.7198 1.22222 13.5714 1.22222 13.4167C1.22222 12.3337 1.67292 11.2951 2.47515 10.5293C3.27739 9.76356 4.36546 9.33335 5.5 9.33335C6.63454 9.33335 7.72261 9.76356 8.52485 10.5293C9.32708 11.2951 9.77778 12.3337 9.77778 13.4167C9.77778 13.5714 9.84216 13.7198 9.95677 13.8292C10.0714 13.9386 10.2268 14 10.3889 14C10.551 14 10.7064 13.9386 10.821 13.8292C10.9356 13.7198 11 13.5714 11 13.4167C10.9984 12.0248 10.4184 10.6903 9.3873 9.70608C8.3562 8.72185 6.95819 8.16823 5.5 8.16669Z" fill="#FF7510"/>
</svg>
