<svg width="12" height="12" viewBox="0 0 12 12" fill="none" xmlns="http://www.w3.org/2000/svg">
<path d="M0.5 2.37476H1.868C1.97532 2.76963 2.20959 3.11821 2.53466 3.36673C2.85974 3.61525 3.25756 3.74989 3.66675 3.74989C4.07594 3.74989 4.47376 3.61525 4.79884 3.36673C5.12391 3.11821 5.35818 2.76963 5.4655 2.37476H11.5C11.6326 2.37476 11.7598 2.32208 11.8536 2.22832C11.9473 2.13455 12 2.00737 12 1.87476C12 1.74216 11.9473 1.61498 11.8536 1.52121C11.7598 1.42744 11.6326 1.37476 11.5 1.37476H5.4655C5.35818 0.979897 5.12391 0.631316 4.79884 0.382798C4.47376 0.134279 4.07594 -0.000366211 3.66675 -0.000366211C3.25756 -0.000366211 2.85974 0.134279 2.53466 0.382798C2.20959 0.631316 1.97532 0.979897 1.868 1.37476H0.5C0.367392 1.37476 0.240215 1.42744 0.146447 1.52121C0.0526784 1.61498 0 1.74216 0 1.87476C0 2.00737 0.0526784 2.13455 0.146447 2.22832C0.240215 2.32208 0.367392 2.37476 0.5 2.37476ZM3.6665 0.999763C3.83956 0.999763 4.00873 1.05108 4.15262 1.14723C4.29652 1.24337 4.40867 1.38003 4.47489 1.53992C4.54112 1.6998 4.55845 1.87573 4.52469 2.04547C4.49093 2.2152 4.40759 2.37111 4.28522 2.49348C4.16285 2.61585 4.00694 2.69919 3.8372 2.73295C3.66747 2.76671 3.49154 2.74938 3.33165 2.68316C3.17177 2.61693 3.03511 2.50478 2.93896 2.36089C2.84282 2.21699 2.7915 2.04782 2.7915 1.87476C2.79176 1.64278 2.88404 1.42037 3.04807 1.25634C3.21211 1.0923 3.43452 1.00003 3.6665 0.999763Z" fill="#51666C"/>
<path d="M11.5 5.50001H10.132C10.0249 5.10505 9.79069 4.75634 9.46564 4.50772C9.14058 4.2591 8.74273 4.12439 8.3335 4.12439C7.92427 4.12439 7.52642 4.2591 7.20136 4.50772C6.87631 4.75634 6.64214 5.10505 6.535 5.50001H0.5C0.367392 5.50001 0.240215 5.55269 0.146447 5.64645C0.0526784 5.74022 0 5.8674 0 6.00001C0 6.13262 0.0526784 6.25979 0.146447 6.35356C0.240215 6.44733 0.367392 6.50001 0.5 6.50001H6.535C6.64214 6.89496 6.87631 7.24367 7.20136 7.49229C7.52642 7.74091 7.92427 7.87562 8.3335 7.87562C8.74273 7.87562 9.14058 7.74091 9.46564 7.49229C9.79069 7.24367 10.0249 6.89496 10.132 6.50001H11.5C11.6326 6.50001 11.7598 6.44733 11.8536 6.35356C11.9473 6.25979 12 6.13262 12 6.00001C12 5.8674 11.9473 5.74022 11.8536 5.64645C11.7598 5.55269 11.6326 5.50001 11.5 5.50001ZM8.3335 6.87501C8.16044 6.87501 7.99127 6.82369 7.84738 6.72754C7.70348 6.6314 7.59133 6.49474 7.52511 6.33485C7.45888 6.17497 7.44155 5.99904 7.47531 5.8293C7.50907 5.65957 7.59241 5.50366 7.71478 5.38129C7.83715 5.25892 7.99306 5.17558 8.1628 5.14182C8.33253 5.10806 8.50846 5.12539 8.66835 5.19161C8.82823 5.25784 8.96489 5.36999 9.06104 5.51388C9.15718 5.65778 9.2085 5.82695 9.2085 6.00001C9.20823 6.23199 9.11596 6.4544 8.95193 6.61843C8.78789 6.78247 8.56548 6.87474 8.3335 6.87501Z" fill="#51666C"/>
<path d="M11.5 9.62501H5.4655C5.35818 9.23014 5.12391 8.88156 4.79884 8.63304C4.47376 8.38452 4.07594 8.24988 3.66675 8.24988C3.25756 8.24988 2.85974 8.38452 2.53466 8.63304C2.20959 8.88156 1.97532 9.23014 1.868 9.62501H0.5C0.367392 9.62501 0.240215 9.67769 0.146447 9.77145C0.0526784 9.86522 0 9.9924 0 10.125C0 10.2576 0.0526784 10.3848 0.146447 10.4786C0.240215 10.5723 0.367392 10.625 0.5 10.625H1.868C1.97532 11.0199 2.20959 11.3685 2.53466 11.617C2.85974 11.8655 3.25756 12.0001 3.66675 12.0001C4.07594 12.0001 4.47376 11.8655 4.79884 11.617C5.12391 11.3685 5.35818 11.0199 5.4655 10.625H11.5C11.6326 10.625 11.7598 10.5723 11.8536 10.4786C11.9473 10.3848 12 10.2576 12 10.125C12 9.9924 11.9473 9.86522 11.8536 9.77145C11.7598 9.67769 11.6326 9.62501 11.5 9.62501ZM3.6665 11C3.49344 11 3.32427 10.9487 3.18038 10.8525C3.03648 10.7564 2.92433 10.6197 2.85811 10.4599C2.79188 10.3 2.77455 10.124 2.80831 9.9543C2.84207 9.78457 2.92541 9.62866 3.04778 9.50629C3.17015 9.38392 3.32606 9.30058 3.4958 9.26682C3.66553 9.23306 3.84146 9.25039 4.00135 9.31661C4.16123 9.38284 4.29789 9.49499 4.39404 9.63888C4.49018 9.78278 4.5415 9.95195 4.5415 10.125C4.5411 10.357 4.44879 10.5793 4.28478 10.7433C4.12077 10.9073 3.89844 10.9996 3.6665 11Z" fill="#51666C"/>
</svg>
