<svg width="40" height="36" viewBox="0 0 40 36" fill="none" xmlns="http://www.w3.org/2000/svg">
<path d="M40 12.2633V31.0942C40 31.5278 39.8244 31.9436 39.5118 32.2501C39.1993 32.5567 38.7754 32.7289 38.3333 32.7289C37.8913 32.7289 37.4674 32.5567 37.1548 32.2501C36.8423 31.9436 36.6667 31.5278 36.6667 31.0942V17.6118L24.3333 23.3919C23.0328 24.1447 21.5483 24.5368 20.0383 24.5263C18.4547 24.5287 16.8999 24.1113 15.5382 23.3183L3.2382 17.5758C2.27133 17.0659 1.46121 16.3115 0.891891 15.3909C0.322574 14.4703 0.0148055 13.4171 0.000520944 12.3405C-0.0137636 11.2639 0.265956 10.2031 0.810655 9.26833C1.35535 8.33352 2.14519 7.5587 3.0982 7.02427C3.1432 6.99812 3.19153 6.9736 3.2382 6.95071L15.6666 1.13469C17.0084 0.378931 18.5312 -0.0126183 20.0784 0.000310088C21.6257 0.0132385 23.1415 0.430178 24.4699 1.20824L36.7617 6.95071C37.7316 7.47703 38.5421 8.24582 39.1109 9.17893C39.6797 10.112 39.9864 11.1762 40 12.2633ZM20.0366 27.7923C17.9042 27.7969 15.8085 27.2488 13.9616 26.2034L6.66654 22.7887V27.2022C6.66753 28.9472 7.23715 30.6462 8.29226 32.0513C9.34737 33.4563 10.8327 34.4939 12.5316 35.0125C14.9588 35.696 17.4748 36.028 19.9999 35.9981C22.5254 36.0259 25.0414 35.6916 27.4683 35.0059C29.1671 34.4873 30.6525 33.4498 31.7076 32.0447C32.7627 30.6397 33.3323 28.9407 33.3333 27.1956V22.7968L25.9016 26.2786C24.1177 27.2838 22.0939 27.8072 20.0366 27.7956V27.7923Z" fill="#F6F6F6"/>
</svg>
