<svg width="18" height="19" viewBox="0 0 18 19" fill="none" xmlns="http://www.w3.org/2000/svg">
<path d="M18.0008 9.43525C17.8924 7.68026 17.2727 5.99538 16.2182 4.58831C15.1638 3.18125 13.7206 2.11352 12.0666 1.51674C10.4127 0.919968 8.62022 0.820246 6.91027 1.22987C5.20031 1.63949 3.6476 2.54055 2.44356 3.82196C1.23952 5.10337 0.436777 6.70912 0.134303 8.44124C-0.168171 10.1734 0.0428439 11.9561 0.741334 13.5698C1.43982 15.1834 2.59525 16.5574 4.06518 17.5223C5.5351 18.4872 7.25526 19.0009 9.0136 19H14.2508C15.2451 18.999 16.1984 18.6036 16.9014 17.9006C17.6044 17.1975 17.9999 16.2443 18.0008 15.25V9.43525ZM16.5008 15.25C16.5008 15.8467 16.2638 16.419 15.8418 16.841C15.4199 17.2629 14.8476 17.5 14.2508 17.5H9.0136C7.9553 17.4995 6.90898 17.276 5.94287 16.844C4.97676 16.412 4.11255 15.7812 3.4066 14.9927C2.69723 14.2047 2.16454 13.2741 1.84427 12.2633C1.52399 11.2526 1.42352 10.185 1.5496 9.13225C1.74867 7.4717 2.49474 5.92464 3.67018 4.73494C4.84562 3.54524 6.38357 2.78058 8.0416 2.5615C8.36502 2.52096 8.69064 2.50042 9.0166 2.5C10.7645 2.49523 12.4582 3.10592 13.8008 4.225C14.585 4.8767 15.2286 5.68086 15.6927 6.58872C16.1569 7.49658 16.4318 8.48923 16.5008 9.5065V15.25Z" fill="#FF7510"/>
</svg>
