<svg width="14" height="14" viewBox="0 0 14 14" fill="none" xmlns="http://www.w3.org/2000/svg">
<path d="M13.4097 6.41667C13.255 6.41667 13.1066 6.47813 12.9972 6.58752C12.8878 6.69692 12.8263 6.84529 12.8263 7C12.8311 8.35641 12.3646 9.67236 11.5066 10.7229C10.6485 11.7735 9.45229 12.4934 8.12227 12.7597C6.79225 13.026 5.41103 12.8221 4.21469 12.1828C3.01836 11.5436 2.08118 10.5087 1.56336 9.25498C1.04553 8.00129 0.97919 6.60668 1.37569 5.3095C1.77218 4.01233 2.6069 2.89313 3.73716 2.14321C4.86741 1.39328 6.22304 1.05919 7.57234 1.19803C8.92163 1.33688 10.1808 1.94004 11.1347 2.90442C11.1155 2.90965 11.096 2.91374 11.0763 2.91667H9.32634C9.17163 2.91667 9.02325 2.97813 8.91386 3.08752C8.80446 3.19692 8.743 3.34529 8.743 3.5C8.743 3.65471 8.80446 3.80308 8.91386 3.91248C9.02325 4.02188 9.17163 4.08333 9.32634 4.08333H11.0763C11.5405 4.08333 11.9856 3.89896 12.3138 3.57077C12.642 3.24258 12.8263 2.79746 12.8263 2.33333V0.583333C12.8263 0.428624 12.7649 0.280251 12.6555 0.170854C12.5461 0.0614582 12.3977 0 12.243 0C12.0883 0 11.9399 0.0614582 11.8305 0.170854C11.7211 0.280251 11.6597 0.428624 11.6597 0.583333V1.78792C10.4653 0.720143 8.94071 0.0945971 7.34058 0.0158099C5.74046 -0.0629774 4.16176 0.409767 2.8683 1.35505C1.57483 2.30032 0.644956 3.66087 0.234051 5.20934C-0.176855 6.75781 -0.0438968 8.4004 0.610708 9.86262C1.26531 11.3248 2.40191 12.5181 3.83057 13.2431C5.25923 13.968 6.8934 14.1807 8.46002 13.8456C10.0266 13.5104 11.4308 12.6478 12.4379 11.4019C13.4449 10.1559 13.9939 8.60206 13.993 7C13.993 6.84529 13.9315 6.69692 13.8221 6.58752C13.7128 6.47813 13.5644 6.41667 13.4097 6.41667Z" fill="#51666C"/>
<path d="M6.99154 3.5C6.83683 3.5 6.68845 3.56146 6.57906 3.67085C6.46966 3.78025 6.4082 3.92862 6.4082 4.08333V7C6.40824 7.1547 6.46972 7.30305 6.57912 7.41242L8.32912 9.16242C8.43914 9.26868 8.58649 9.32747 8.73944 9.32614C8.89239 9.32481 9.03869 9.26347 9.14685 9.15531C9.255 9.04716 9.31635 8.90085 9.31768 8.7479C9.31901 8.59495 9.26021 8.4476 9.15395 8.33758L7.57487 6.7585V4.08333C7.57487 3.92862 7.51341 3.78025 7.40402 3.67085C7.29462 3.56146 7.14625 3.5 6.99154 3.5Z" fill="#51666C"/>
</svg>
