<svg width="144" height="44" viewBox="0 0 144 44" fill="none" xmlns="http://www.w3.org/2000/svg">
<path d="M61.3395 14.4545V29H58.2642V14.4545H61.3395ZM66.8384 22.6932V29H63.8129V18.0909H66.6964V20.0156H66.8242C67.0657 19.3812 67.4705 18.8793 68.0387 18.5099C68.6069 18.1359 69.2958 17.9489 70.1055 17.9489C70.863 17.9489 71.5236 18.1146 72.087 18.446C72.6505 18.7775 73.0884 19.2509 73.4009 19.8665C73.7134 20.4773 73.8697 21.2064 73.8697 22.054V29H70.8441V22.5938C70.8488 21.9261 70.6784 21.4053 70.3327 21.0312C69.9871 20.6525 69.5112 20.4631 68.9052 20.4631C68.498 20.4631 68.1381 20.5507 67.8256 20.7259C67.5179 20.901 67.2764 21.1567 67.1012 21.4929C66.9308 21.8243 66.8432 22.2244 66.8384 22.6932ZM85.331 21.2017L82.5611 21.3722C82.5137 21.1354 82.4119 20.9223 82.2557 20.733C82.0994 20.5388 81.8935 20.3849 81.6378 20.2713C81.3868 20.1529 81.0862 20.0938 80.7358 20.0938C80.267 20.0938 79.8717 20.1932 79.5497 20.392C79.2277 20.5862 79.0668 20.8466 79.0668 21.1733C79.0668 21.4337 79.1709 21.6539 79.3793 21.8338C79.5876 22.0137 79.9451 22.1581 80.4517 22.267L82.4261 22.6648C83.4867 22.8826 84.2775 23.233 84.7983 23.7159C85.3191 24.1989 85.5795 24.8333 85.5795 25.6193C85.5795 26.3343 85.3688 26.9616 84.9474 27.5014C84.5308 28.0412 83.9579 28.4626 83.2287 28.7656C82.5043 29.0639 81.6686 29.2131 80.7216 29.2131C79.2775 29.2131 78.1269 28.9124 77.2699 28.3111C76.4176 27.705 75.9181 26.8812 75.7713 25.8395L78.7472 25.6832C78.8371 26.1236 79.0549 26.4598 79.4006 26.6918C79.7462 26.919 80.1889 27.0327 80.7287 27.0327C81.259 27.0327 81.6851 26.9309 82.0071 26.7273C82.3338 26.5189 82.4995 26.2514 82.5043 25.9247C82.4995 25.6501 82.3835 25.4252 82.1562 25.25C81.929 25.0701 81.5786 24.9328 81.1051 24.8381L79.2159 24.4616C78.1506 24.2486 77.3575 23.8793 76.8366 23.3537C76.3205 22.8281 76.0625 22.1581 76.0625 21.3438C76.0625 20.643 76.2519 20.0393 76.6307 19.5327C77.0142 19.026 77.5516 18.6354 78.2429 18.3608C78.9389 18.0862 79.7533 17.9489 80.6861 17.9489C82.0639 17.9489 83.1482 18.2401 83.9389 18.8224C84.7344 19.4048 85.1984 20.1979 85.331 21.2017ZM92.4137 29.2131C91.3105 29.2131 90.3564 28.9787 89.5515 28.5099C88.7513 28.0365 88.1334 27.3783 87.6978 26.5355C87.2622 25.688 87.0444 24.7055 87.0444 23.5881C87.0444 22.4612 87.2622 21.4763 87.6978 20.6335C88.1334 19.786 88.7513 19.1278 89.5515 18.6591C90.3564 18.1856 91.3105 17.9489 92.4137 17.9489C93.5169 17.9489 94.4686 18.1856 95.2688 18.6591C96.0737 19.1278 96.694 19.786 97.1296 20.6335C97.5652 21.4763 97.783 22.4612 97.783 23.5881C97.783 24.7055 97.5652 25.688 97.1296 26.5355C96.694 27.3783 96.0737 28.0365 95.2688 28.5099C94.4686 28.9787 93.5169 29.2131 92.4137 29.2131ZM92.4279 26.8693C92.9298 26.8693 93.3488 26.7273 93.685 26.4432C94.0212 26.1544 94.2745 25.7614 94.445 25.2642C94.6201 24.767 94.7077 24.2012 94.7077 23.5668C94.7077 22.9323 94.6201 22.3665 94.445 21.8693C94.2745 21.3722 94.0212 20.9792 93.685 20.6903C93.3488 20.4015 92.9298 20.2571 92.4279 20.2571C91.9213 20.2571 91.4951 20.4015 91.1495 20.6903C90.8086 20.9792 90.5505 21.3722 90.3754 21.8693C90.2049 22.3665 90.1197 22.9323 90.1197 23.5668C90.1197 24.2012 90.2049 24.767 90.3754 25.2642C90.5505 25.7614 90.8086 26.1544 91.1495 26.4432C91.4951 26.7273 91.9213 26.8693 92.4279 26.8693ZM104.679 29.2131C103.562 29.2131 102.601 28.9763 101.796 28.5028C100.996 28.0246 100.38 27.3617 99.9492 26.5142C99.5231 25.6667 99.31 24.6913 99.31 23.5881C99.31 22.4706 99.5254 21.4905 99.9563 20.6477C100.392 19.8002 101.01 19.1397 101.81 18.6662C102.61 18.188 103.562 17.9489 104.665 17.9489C105.617 17.9489 106.45 18.1217 107.165 18.4673C107.88 18.813 108.446 19.2983 108.863 19.9233C109.279 20.5483 109.509 21.2822 109.551 22.125H106.696C106.616 21.5805 106.403 21.1425 106.057 20.8111C105.716 20.4749 105.269 20.3068 104.715 20.3068C104.246 20.3068 103.837 20.4347 103.486 20.6903C103.141 20.9413 102.871 21.3082 102.676 21.7912C102.482 22.2741 102.385 22.8589 102.385 23.5455C102.385 24.2415 102.48 24.8333 102.669 25.321C102.864 25.8087 103.136 26.1804 103.486 26.4361C103.837 26.6918 104.246 26.8196 104.715 26.8196C105.06 26.8196 105.371 26.7486 105.645 26.6065C105.925 26.4645 106.154 26.2585 106.334 25.9886C106.519 25.714 106.64 25.3849 106.696 25.0014H109.551C109.504 25.8348 109.277 26.5687 108.87 27.2031C108.467 27.8329 107.911 28.3253 107.201 28.6804C106.49 29.0355 105.65 29.2131 104.679 29.2131ZM116.418 29.2131C115.314 29.2131 114.36 28.9787 113.555 28.5099C112.755 28.0365 112.137 27.3783 111.702 26.5355C111.266 25.688 111.048 24.7055 111.048 23.5881C111.048 22.4612 111.266 21.4763 111.702 20.6335C112.137 19.786 112.755 19.1278 113.555 18.6591C114.36 18.1856 115.314 17.9489 116.418 17.9489C117.521 17.9489 118.473 18.1856 119.273 18.6591C120.078 19.1278 120.698 19.786 121.134 20.6335C121.569 21.4763 121.787 22.4612 121.787 23.5881C121.787 24.7055 121.569 25.688 121.134 26.5355C120.698 27.3783 120.078 28.0365 119.273 28.5099C118.473 28.9787 117.521 29.2131 116.418 29.2131ZM116.432 26.8693C116.934 26.8693 117.353 26.7273 117.689 26.4432C118.025 26.1544 118.278 25.7614 118.449 25.2642C118.624 24.767 118.712 24.2012 118.712 23.5668C118.712 22.9323 118.624 22.3665 118.449 21.8693C118.278 21.3722 118.025 20.9792 117.689 20.6903C117.353 20.4015 116.934 20.2571 116.432 20.2571C115.925 20.2571 115.499 20.4015 115.153 20.6903C114.813 20.9792 114.554 21.3722 114.379 21.8693C114.209 22.3665 114.124 22.9323 114.124 23.5668C114.124 24.2012 114.209 24.767 114.379 25.2642C114.554 25.7614 114.813 26.1544 115.153 26.4432C115.499 26.7273 115.925 26.8693 116.432 26.8693ZM130.75 24.3551V18.0909H133.776V29H130.871V27.0185H130.757C130.511 27.6577 130.101 28.1714 129.528 28.5597C128.96 28.9479 128.267 29.142 127.447 29.142C126.718 29.142 126.077 28.9763 125.523 28.6449C124.969 28.3134 124.536 27.8423 124.223 27.2315C123.915 26.6207 123.759 25.8892 123.754 25.0369V18.0909H126.78V24.4972C126.785 25.1411 126.957 25.6501 127.298 26.0241C127.639 26.3982 128.096 26.5852 128.669 26.5852C129.034 26.5852 129.375 26.5024 129.692 26.3366C130.009 26.1662 130.265 25.9152 130.459 25.5838C130.658 25.2524 130.755 24.8428 130.75 24.3551ZM136.196 29V18.0909H139.129V19.9943H139.243C139.441 19.3172 139.775 18.8059 140.244 18.4602C140.713 18.1098 141.252 17.9347 141.863 17.9347C142.015 17.9347 142.178 17.9441 142.353 17.9631C142.529 17.982 142.682 18.008 142.815 18.0412V20.7259C142.673 20.6832 142.476 20.6454 142.225 20.6122C141.975 20.5791 141.745 20.5625 141.537 20.5625C141.092 20.5625 140.694 20.6596 140.343 20.8537C139.998 21.0431 139.723 21.3082 139.52 21.6491C139.321 21.9901 139.221 22.383 139.221 22.8281V29H136.196Z" fill="white"/>
<path fill-rule="evenodd" clip-rule="evenodd" d="M26.9503 6.98528C25.7914 5.19687 24.3554 4.38933 22.7363 4.22021C24.1807 4.95587 25.5996 5.86488 26.9503 6.98528ZM6.55752 10.1055C5.34741 10.5114 4.13731 10.8115 2.95703 10.9257C2.95703 21.9564 2.95703 32.9786 2.95703 44.005C9.77452 43.468 23.3371 34.8219 26.6606 39.5614C23.4479 34.3822 13.7457 30.1712 6.55752 30.0528V10.1055Z" fill="white"/>
<path fill-rule="evenodd" clip-rule="evenodd" d="M26.9504 6.98525C25.0884 4.08912 22.3742 2.97718 19.2296 2.75732C21.8501 3.62828 24.5089 4.96007 26.9504 6.98525ZM6.55757 4.32588C4.29502 4.72331 2.07507 5.04463 0 5.04463C0 16.0753 0 27.0975 0 38.1239C7.16689 38.2592 22.9451 34.2723 26.6095 39.4768C23.3414 34.3399 13.7074 30.1712 6.55757 30.0528V4.32588Z" fill="white"/>
<path fill-rule="evenodd" clip-rule="evenodd" d="M26.9497 6.98516C21.1421 0.0978743 13.4383 -0.0120519 4.13672 0.000631843C4.13672 11.0271 4.13672 22.0535 4.13672 33.0799C10.8306 33.2067 21.6747 33.8367 25.8419 38.424C22.0241 33.7817 13.2125 30.1626 6.55693 30.0527C6.55693 20.2524 6.55693 11.1116 6.55693 1.31552C11.0693 1.03647 19.9192 1.15486 26.9497 6.98516Z" fill="white"/>
<path d="M30.2165 6.54354L27.8438 13.0342L34.3851 15.3885L36.7578 8.89787L30.2165 6.54354Z" fill="white"/>
<path d="M24.8496 14.718L29.0466 16.2274L27.5255 20.4003L23.3242 18.8825L24.8496 14.718Z" fill="white"/>
<path d="M28.7093 22.0703L34.2187 24.049L32.2203 29.5199L26.7109 27.537L28.7093 22.0703Z" fill="white"/>
<path d="M37.5407 16.2529L42.0019 17.8595L40.3827 22.2819L35.9258 20.6838L37.5407 16.2529Z" fill="white"/>
<path d="M18.1213 18.6372L20.9762 19.6646L19.9408 22.4973L17.0859 21.4699L18.1213 18.6372Z" fill="white"/>
<path d="M21.3752 23.4785L24.2258 24.5059L23.1947 27.3386L20.3398 26.3155L21.3752 23.4785Z" fill="white"/>
<path d="M14.0725 24.1263L13.4414 25.8555L15.1841 26.4817L15.8152 24.7525L14.0725 24.1263Z" fill="white"/>
</svg>
