<svg width="61" height="64" viewBox="0 0 61 64" fill="none" xmlns="http://www.w3.org/2000/svg">
<path d="M58.9315 41.009C60.5688 37.6077 60.3594 33.591 58.4223 30.3385C58.5436 30.1367 58.6594 29.9296 58.7632 29.714C60.8104 25.4614 59.6715 20.7237 56.1662 18.422C57.2371 14.2975 55.2607 9.86201 51.3608 7.98461C48.3406 6.5307 44.9026 6.90868 42.3122 8.67369C42.0773 5.54589 40.2273 2.62496 37.2071 1.17105C33.3094 -0.705298 28.6129 0.515183 26.059 3.92044C22.1059 2.60482 17.6631 4.66891 15.6085 8.9368C15.5037 9.15455 15.414 9.37423 15.333 9.5927C11.5803 10.1062 8.31223 12.4488 6.67488 15.8501C5.69372 17.8882 5.36638 20.1338 5.71596 22.3995C3.72693 23.5394 2.17583 25.1959 1.19468 27.234C-0.526534 30.8094 -0.215925 35.017 1.98172 38.3467C0.969196 43.9155 3.75199 49.4338 8.88652 51.9056C13.4026 54.0796 18.5901 53.3047 22.2532 50.3476C22.2287 55.0563 24.8562 59.5934 29.3724 61.7674C34.5047 64.2381 40.556 62.9725 44.2773 58.7077C48.2507 58.3487 51.7333 55.9672 53.4545 52.3918C54.4356 50.3536 54.763 48.108 54.4134 45.8423C56.4024 44.7024 57.9535 43.046 58.9347 41.0078L58.9315 41.009ZM9.93153 49.7292C5.65494 47.6705 3.39704 42.9895 4.44511 38.3498C4.52323 38.0092 4.44764 37.6536 4.24343 37.3702C2.29236 34.6984 1.95801 31.2143 3.36894 28.2834C4.24108 26.4717 5.69937 25.0414 7.58616 24.1474C8.10131 23.9018 8.3749 23.3335 8.24551 22.7777C7.76755 20.7452 7.97596 18.7133 8.84809 16.9016C10.2276 14.036 13.0904 12.1286 16.3181 11.9256C16.8321 11.8941 17.2689 11.5385 17.4052 11.0435C17.5036 10.6886 17.6183 10.3334 17.7839 9.98939C19.2127 7.02147 22.6516 4.89785 25.9918 6.50585C26.5602 6.77944 27.2456 6.57028 27.5595 6.02405C29.2906 3.04078 33.0713 1.86754 36.159 3.35395C39.4622 4.94413 40.8546 8.92146 39.2644 12.2247L34.3125 22.5112L28.7316 19.8245C29.1496 17.7138 28.1112 15.5027 26.0862 14.5279C23.6844 13.3717 20.7909 14.3846 19.6347 16.7864C18.4785 19.1881 19.4914 22.0816 21.8932 23.2378C23.9183 24.2127 26.2942 23.6453 27.6834 22.002L33.2643 24.6887L26.9748 37.7536L21.3939 35.067C21.8119 32.9562 20.7736 30.7452 18.7485 29.7703C16.3467 28.6141 13.4532 29.627 12.297 32.0288C11.1408 34.4306 12.1538 37.3241 14.5555 38.4803C16.5806 39.4551 18.9565 38.8877 20.3457 37.2445L25.9266 39.9311L23.4936 44.9851C21.0638 50.0325 14.979 52.1644 9.93161 49.7346L9.93153 49.7292ZM26.1671 19.9257C25.5895 21.1255 24.1433 21.6336 22.9414 21.0549C21.7394 20.4763 21.2345 19.029 21.8121 17.8292C22.3897 16.6294 23.8359 16.1213 25.0378 16.7C26.2398 17.2786 26.7447 18.7259 26.1671 19.9257ZM18.8294 35.1681C18.2518 36.3679 16.8057 36.876 15.6037 36.2974C14.4017 35.7188 13.8969 34.2714 14.4744 33.0716C15.052 31.8718 16.4982 31.3638 17.7002 31.9424C18.9021 32.521 19.407 33.9683 18.8294 35.1681ZM51.8774 45.4664C52.3554 47.4988 52.1469 49.5308 51.2748 51.3425C49.8628 54.2756 46.932 56.1851 43.6266 56.3265C43.2788 56.3415 42.9527 56.5063 42.7352 56.7798C39.7622 60.4929 34.695 61.6476 30.4184 59.5889C25.371 57.1591 23.2412 51.0753 25.6721 46.0257L30.7257 35.528L36.1694 38.1486C39.1722 39.5942 42.7892 38.3261 44.2337 35.3255L44.8239 34.0996C46.9346 34.5176 49.1447 33.4814 50.1206 31.4541C51.2768 29.0524 50.2638 26.1589 47.8621 25.0027C45.4603 23.8465 42.5668 24.8594 41.4106 27.2612C40.4357 29.2863 41.0032 31.6622 42.6464 33.0513L42.0562 34.2773C41.1893 36.0781 39.0184 36.838 37.2176 35.9712L31.7739 33.3506L41.4418 13.2675C43.032 9.96429 47.0093 8.57192 50.3126 10.1621C53.4003 11.6485 54.8401 15.3322 53.5891 18.5493C53.3601 19.1364 53.6786 19.8288 54.2447 20.1014C57.5284 21.6821 58.0123 25.6968 56.5846 28.6626C56.4189 29.0066 56.2128 29.3178 55.9968 29.6161C55.695 30.0313 55.6916 30.5956 55.9854 31.016C57.8399 33.6656 58.1345 37.093 56.755 39.9585C55.8829 41.7702 54.4246 43.2005 52.5378 44.0946C52.0226 44.3401 51.7491 44.9084 51.8784 45.4642L51.8774 45.4664ZM44.7163 31.5373C43.5143 30.9587 43.0095 29.5114 43.587 28.3116C44.1646 27.1118 45.6108 26.6037 46.8128 27.1824C48.0147 27.761 48.5196 29.2083 47.942 30.4081C47.3644 31.6079 45.9183 32.116 44.7163 31.5373Z" fill="#96A385"/>
</svg>
